solid Case_v01
facet normal 0.0 0.0 -1.0
  outer loop
    vertex 83.0 76.0 0.0
    vertex 3.0 73.0 0.0
    vertex 2.9999999999999947 76.0 0.0
  endloop
endfacet
facet normal 0.0 0.0 -1.0
  outer loop
    vertex 3.0 73.0 0.0
    vertex 83.0 76.0 0.0
    vertex 83.0 73.0 0.0
  endloop
endfacet
facet normal 0.0 0.0 -1.0
  outer loop
    vertex 83.0 73.0 0.0
    vertex 83.0 76.0 0.0
    vertex 83.77645713530757 75.89777747886721 0.0
  endloop
endfacet
facet normal 0.0 0.0 -1.0
  outer loop
    vertex 83.0 73.0 0.0
    vertex 83.77645713530757 75.89777747886721 0.0
    vertex 83.0 3.0 0.0
  endloop
endfacet
facet normal 0.0 0.0 -1.0
  outer loop
    vertex 83.0 3.0 0.0
    vertex 83.77645713530757 75.89777747886721 0.0
    vertex 83.0 5.639932965095795e-15 0.0
  endloop
endfacet
facet normal 0.0 0.0 -1.0
  outer loop
    vertex 83.0 5.639932965095795e-15 0.0
    vertex 83.77645713530757 75.89777747886721 0.0
    vertex 83.77645713530757 0.10222252113280089 0.0
  endloop
endfacet
facet normal 0.0 0.0 -1.0
  outer loop
    vertex 83.77645713530757 0.10222252113280089 0.0
    vertex 83.77645713530757 75.89777747886721 0.0
    vertex 84.5 75.59807621135332 0.0
  endloop
endfacet
facet normal 0.0 0.0 -1.0
  outer loop
    vertex 83.77645713530757 0.10222252113280089 0.0
    vertex 84.5 75.59807621135332 0.0
    vertex 84.5 0.401923788646689 0.0
  endloop
endfacet
facet normal 0.0 0.0 -1.0
  outer loop
    vertex 84.5 0.401923788646689 0.0
    vertex 84.5 75.59807621135332 0.0
    vertex 85.12132034355965 75.12132034355963 0.0
  endloop
endfacet
facet normal 0.0 0.0 -1.0
  outer loop
    vertex 84.5 0.401923788646689 0.0
    vertex 85.12132034355965 75.12132034355963 0.0
    vertex 85.12132034355965 0.8786796564403615 0.0
  endloop
endfacet
facet normal 0.0 0.0 -1.0
  outer loop
    vertex 85.12132034355965 0.8786796564403615 0.0
    vertex 85.12132034355965 75.12132034355963 0.0
    vertex 85.59807621135332 74.5 0.0
  endloop
endfacet
facet normal 0.0 0.0 -1.0
  outer loop
    vertex 85.12132034355965 0.8786796564403615 0.0
    vertex 85.59807621135332 74.5 0.0
    vertex 85.59807621135332 1.500000000000003 0.0
  endloop
endfacet
facet normal 0.0 0.0 -1.0
  outer loop
    vertex 85.59807621135332 1.500000000000003 0.0
    vertex 85.59807621135332 74.5 0.0
    vertex 85.8977774788672 73.77645713530757 0.0
  endloop
endfacet
facet normal 0.0 0.0 -1.0
  outer loop
    vertex 85.59807621135332 1.500000000000003 0.0
    vertex 85.8977774788672 73.77645713530757 0.0
    vertex 85.89777747886721 2.223542864692439 0.0
  endloop
endfacet
facet normal 0.0 0.0 -1.0
  outer loop
    vertex 85.89777747886721 2.223542864692439 0.0
    vertex 85.8977774788672 73.77645713530757 0.0
    vertex 86.0 73.0 0.0
  endloop
endfacet
facet normal 0.0 0.0 -1.0
  outer loop
    vertex 85.89777747886721 2.223542864692439 0.0
    vertex 86.0 73.0 0.0
    vertex 86.0 3.0 0.0
  endloop
endfacet
facet normal 0.0 0.0 -1.0
  outer loop
    vertex 3.524958103184872e-15 72.99999999999999 0.0
    vertex 0.10222252113279667 2.2235428646924325 0.0
    vertex 3.524958103184872e-16 2.9999999999999973 0.0
  endloop
endfacet
facet normal 0.0 0.0 -1.0
  outer loop
    vertex 0.10222252113279667 2.2235428646924325 0.0
    vertex 3.524958103184872e-15 72.99999999999999 0.0
    vertex 0.10222252113279631 73.77645713530755 0.0
  endloop
endfacet
facet normal 0.0 0.0 -1.0
  outer loop
    vertex 0.10222252113279667 2.2235428646924325 0.0
    vertex 0.10222252113279631 73.77645713530755 0.0
    vertex 0.401923788646683 74.49999999999999 0.0
  endloop
endfacet
facet normal 0.0 0.0 -1.0
  outer loop
    vertex 0.10222252113279667 2.2235428646924325 0.0
    vertex 0.401923788646683 74.49999999999999 0.0
    vertex 0.4019237886466865 1.4999999999999964 0.0
  endloop
endfacet
facet normal 0.0 0.0 -1.0
  outer loop
    vertex 0.4019237886466865 1.4999999999999964 0.0
    vertex 0.401923788646683 74.49999999999999 0.0
    vertex 0.8786796564403558 75.12132034355963 0.0
  endloop
endfacet
facet normal 0.0 0.0 -1.0
  outer loop
    vertex 0.4019237886466865 1.4999999999999964 0.0
    vertex 0.8786796564403558 75.12132034355963 0.0
    vertex 0.8786796564403604 0.8786796564403551 0.0
  endloop
endfacet
facet normal 0.0 0.0 -1.0
  outer loop
    vertex 0.8786796564403604 0.8786796564403551 0.0
    vertex 0.8786796564403558 75.12132034355963 0.0
    vertex 1.4999999999999964 75.59807621135332 0.0
  endloop
endfacet
facet normal 0.0 0.0 -1.0
  outer loop
    vertex 0.8786796564403604 0.8786796564403551 0.0
    vertex 1.4999999999999964 75.59807621135332 0.0
    vertex 1.5000000000000047 0.40192378864668193 0.0
  endloop
endfacet
facet normal 0.0 0.0 -1.0
  outer loop
    vertex 1.5000000000000047 0.40192378864668193 0.0
    vertex 1.4999999999999964 75.59807621135332 0.0
    vertex 2.2235428646924333 75.89777747886721 0.0
  endloop
endfacet
facet normal 0.0 0.0 -1.0
  outer loop
    vertex 1.5000000000000047 0.40192378864668193 0.0
    vertex 2.2235428646924333 75.89777747886721 0.0
    vertex 2.2235428646924422 0.1022225211327942 0.0
  endloop
endfacet
facet normal 0.0 0.0 -1.0
  outer loop
    vertex 2.2235428646924422 0.1022225211327942 0.0
    vertex 2.2235428646924333 75.89777747886721 0.0
    vertex 2.9999999999999947 76.0 0.0
  endloop
endfacet
facet normal 0.0 0.0 -1.0
  outer loop
    vertex 2.2235428646924422 0.1022225211327942 0.0
    vertex 2.9999999999999947 76.0 0.0
    vertex 3.0 3.0 0.0
  endloop
endfacet
facet normal 0.0 0.0 -1.0
  outer loop
    vertex 2.2235428646924422 0.1022225211327942 0.0
    vertex 3.0 3.0 0.0
    vertex 3.0000000000000036 3.524958103184872e-16 0.0
  endloop
endfacet
facet normal 0.0 0.0 -1.0
  outer loop
    vertex 3.0 3.0 0.0
    vertex 2.9999999999999947 76.0 0.0
    vertex 3.0 73.0 0.0
  endloop
endfacet
facet normal 0.0 0.0 -1.0
  outer loop
    vertex 3.0000000000000036 3.524958103184872e-16 0.0
    vertex 3.0 3.0 0.0
    vertex 83.0 3.0 0.0
  endloop
endfacet
facet normal 0.0 0.0 -1.0
  outer loop
    vertex 3.0000000000000036 3.524958103184872e-16 0.0
    vertex 83.0 3.0 0.0
    vertex 83.0 5.639932965095795e-15 0.0
  endloop
endfacet
facet normal 6.609296443471633e-17 -1.0 0.0
  outer loop
    vertex 83.0 5.639932965095795e-15 20.0
    vertex 3.0000000000000036 3.524958103184872e-16 0.0
    vertex 83.0 5.639932965095795e-15 0.0
  endloop
endfacet
facet normal 6.609296443471633e-17 -1.0 0.0
  outer loop
    vertex 3.0000000000000036 3.524958103184872e-16 0.0
    vertex 83.0 5.639932965095795e-15 20.0
    vertex 3.0000000000000036 3.524958103184872e-16 20.0
  endloop
endfacet
facet normal -1.0 4.53208898980912e-17 0.0
  outer loop
    vertex 3.524958103184872e-15 72.99999999999999 20.0
    vertex 3.524958103184872e-16 2.9999999999999973 0.0
    vertex 3.524958103184872e-16 2.9999999999999973 20.0
  endloop
endfacet
facet normal -1.0 4.53208898980912e-17 0.0
  outer loop
    vertex 3.524958103184872e-16 2.9999999999999973 0.0
    vertex 3.524958103184872e-15 72.99999999999999 20.0
    vertex 3.6171937843168985e-15 47.74999999999999 12.5
  endloop
endfacet
facet normal -1.0 4.53208898980912e-17 0.0
  outer loop
    vertex 3.524958103184872e-16 2.9999999999999973 0.0
    vertex 3.6171937843168985e-15 47.74999999999999 12.5
    vertex 3.524958103184872e-15 45.74999999999999 10.5
  endloop
endfacet
facet normal -1.0 4.53208898980912e-17 0.0
  outer loop
    vertex 3.6171937843168985e-15 47.74999999999999 12.5
    vertex 3.524958103184872e-15 72.99999999999999 20.0
    vertex 3.432722422052845e-15 52.74999999999999 12.5
  endloop
endfacet
facet normal -1.0 4.53208898980912e-17 0.0
  outer loop
    vertex 3.432722422052845e-15 52.74999999999999 12.5
    vertex 3.524958103184872e-15 72.99999999999999 20.0
    vertex 3.524958103184872e-15 54.74999999999999 10.5
  endloop
endfacet
facet normal -1.0 4.53208898980912e-17 0.0
  outer loop
    vertex 3.524958103184872e-15 54.74999999999999 10.5
    vertex 3.524958103184872e-15 72.99999999999999 20.0
    vertex 3.524958103184872e-15 54.74999999999999 8.5
  endloop
endfacet
facet normal -1.0 4.53208898980912e-17 0.0
  outer loop
    vertex 3.524958103184872e-16 2.9999999999999973 0.0
    vertex 3.524958103184872e-15 45.74999999999999 8.5
    vertex 3.524958103184872e-15 72.99999999999999 0.0
  endloop
endfacet
facet normal -1.0 4.53208898980912e-17 0.0
  outer loop
    vertex 3.524958103184872e-15 45.74999999999999 8.5
    vertex 3.524958103184872e-16 2.9999999999999973 0.0
    vertex 3.524958103184872e-15 45.74999999999999 10.5
  endloop
endfacet
facet normal -1.0 4.53208898980912e-17 0.0
  outer loop
    vertex 3.524958103184872e-15 72.99999999999999 0.0
    vertex 3.524958103184872e-15 45.74999999999999 8.5
    vertex 3.524958103184872e-15 54.74999999999999 8.5
  endloop
endfacet
facet normal -1.0 4.53208898980912e-17 0.0
  outer loop
    vertex 3.524958103184872e-15 72.99999999999999 0.0
    vertex 3.524958103184872e-15 54.74999999999999 8.5
    vertex 3.524958103184872e-15 72.99999999999999 20.0
  endloop
endfacet
facet normal 3.076668894819594e-32 1.0 -5.9646583792472e-31
  outer loop
    vertex 2.9999999999999947 76.0 20.0
    vertex 83.0 76.0 0.0
    vertex 2.9999999999999947 76.0 0.0
  endloop
endfacet
facet normal 3.076668894819594e-32 1.0 -5.9646583792472e-31
  outer loop
    vertex 83.0 76.0 0.0
    vertex 2.9999999999999947 76.0 20.0
    vertex 67.30143330227679 76.0 8.75563721594977
  endloop
endfacet
facet normal 3.076668894819594e-32 1.0 -5.9646583792472e-31
  outer loop
    vertex 67.30143330227679 76.0 8.75563721594977
    vertex 2.9999999999999947 76.0 20.0
    vertex 66.40379165941854 76.0 8.926097583556396
  endloop
endfacet
facet normal 3.076668894819594e-32 1.0 -5.9646583792472e-31
  outer loop
    vertex 66.40379165941854 76.0 8.926097583556396
    vertex 2.9999999999999947 76.0 20.0
    vertex 65.580854803401 76.0 9.323076407835197
  endloop
endfacet
facet normal 3.076668894819594e-32 1.0 -5.9646583792472e-31
  outer loop
    vertex 65.580854803401 76.0 9.323076407835197
    vertex 2.9999999999999947 76.0 20.0
    vertex 64.88870452099427 76.0 9.91952023795009
  endloop
endfacet
facet normal 3.076668894819594e-32 1.0 -5.9646583792472e-31
  outer loop
    vertex 64.88870452099427 76.0 9.91952023795009
    vertex 2.9999999999999947 76.0 20.0
    vertex 64.37450971011198 76.0 10.674782412548783
  endloop
endfacet
facet normal 3.076668894819594e-32 1.0 -5.9646583792472e-31
  outer loop
    vertex 64.37450971011198 76.0 10.674782412548783
    vertex 2.9999999999999947 76.0 20.0
    vertex 64.07331189736864 76.0 11.537393062562133
  endloop
endfacet
facet normal 3.076668894819594e-32 1.0 -5.9646583792472e-31
  outer loop
    vertex 64.07331189736864 76.0 11.537393062562133
    vertex 2.9999999999999947 76.0 20.0
    vertex 64.00563721594978 76.0 12.448566697723226
  endloop
endfacet
facet normal 3.076668894819594e-32 1.0 -5.9646583792472e-31
  outer loop
    vertex 64.00563721594978 76.0 12.448566697723226
    vertex 2.9999999999999947 76.0 20.0
    vertex 64.17609758355641 76.0 13.346208340581464
  endloop
endfacet
facet normal 3.076668894819594e-32 1.0 -5.9646583792472e-31
  outer loop
    vertex 64.17609758355641 76.0 13.346208340581464
    vertex 2.9999999999999947 76.0 20.0
    vertex 64.57307640783522 76.0 14.169145196599017
  endloop
endfacet
facet normal 3.076668894819594e-32 1.0 -5.9646583792472e-31
  outer loop
    vertex 64.57307640783522 76.0 14.169145196599017
    vertex 2.9999999999999947 76.0 20.0
    vertex 65.1695202379501 76.0 14.861295479005735
  endloop
endfacet
facet normal 3.076668894819594e-32 1.0 -5.9646583792472e-31
  outer loop
    vertex 65.1695202379501 76.0 14.861295479005735
    vertex 2.9999999999999947 76.0 20.0
    vertex 65.9247824125488 76.0 15.37549028988803
  endloop
endfacet
facet normal 3.076668894819594e-32 1.0 -5.9646583792472e-31
  outer loop
    vertex 65.9247824125488 76.0 15.37549028988803
    vertex 2.9999999999999947 76.0 20.0
    vertex 66.78739306256215 76.0 15.676688102631374
  endloop
endfacet
facet normal 3.076668894819594e-32 1.0 -5.9646583792472e-31
  outer loop
    vertex 66.78739306256215 76.0 15.676688102631374
    vertex 2.9999999999999947 76.0 20.0
    vertex 67.50000000000001 76.0 15.729614839761393
  endloop
endfacet
facet normal 3.076668894819594e-32 1.0 -5.9646583792472e-31
  outer loop
    vertex 67.50000000000001 76.0 15.729614839761393
    vertex 2.9999999999999947 76.0 20.0
    vertex 67.69856669772324 76.0 15.74436278405023
  endloop
endfacet
facet normal 3.076668894819594e-32 1.0 -5.9646583792472e-31
  outer loop
    vertex 83.0 76.0 0.0
    vertex 69.83047976204992 76.0 9.638704520994267
    vertex 83.0 76.0 20.0
  endloop
endfacet
facet normal 3.076668894819594e-32 1.0 -5.9646583792472e-31
  outer loop
    vertex 69.83047976204992 76.0 9.638704520994267
    vertex 83.0 76.0 0.0
    vertex 69.07521758745122 76.0 9.12450971011197
  endloop
endfacet
facet normal 3.076668894819594e-32 1.0 -5.9646583792472e-31
  outer loop
    vertex 69.07521758745122 76.0 9.12450971011197
    vertex 83.0 76.0 0.0
    vertex 68.21260693743788 76.0 8.823311897368626
  endloop
endfacet
facet normal 3.076668894819594e-32 1.0 -5.9646583792472e-31
  outer loop
    vertex 68.21260693743788 76.0 8.823311897368626
    vertex 83.0 76.0 0.0
    vertex 67.30143330227679 76.0 8.75563721594977
  endloop
endfacet
facet normal 3.076668894819594e-32 1.0 -5.9646583792472e-31
  outer loop
    vertex 83.0 76.0 20.0
    vertex 69.83047976204992 76.0 9.638704520994267
    vertex 70.42692359216483 76.0 10.330854803400987
  endloop
endfacet
facet normal 3.076668894819594e-32 1.0 -5.9646583792472e-31
  outer loop
    vertex 83.0 76.0 20.0
    vertex 70.42692359216483 76.0 10.330854803400987
    vertex 70.82390241644362 76.0 11.153791659418536
  endloop
endfacet
facet normal 3.076668894819594e-32 1.0 -5.9646583792472e-31
  outer loop
    vertex 83.0 76.0 20.0
    vertex 70.82390241644362 76.0 11.153791659418536
    vertex 70.99436278405025 76.0 12.051433302276774
  endloop
endfacet
facet normal 3.076668894819594e-32 1.0 -5.9646583792472e-31
  outer loop
    vertex 83.0 76.0 20.0
    vertex 70.99436278405025 76.0 12.051433302276774
    vertex 70.97961483976141 76.0 12.25
  endloop
endfacet
facet normal 3.076668894819594e-32 1.0 -5.9646583792472e-31
  outer loop
    vertex 83.0 76.0 20.0
    vertex 70.97961483976141 76.0 12.25
    vertex 70.92668810263139 76.0 12.962606937437869
  endloop
endfacet
facet normal 3.076668894819594e-32 1.0 -5.9646583792472e-31
  outer loop
    vertex 83.0 76.0 20.0
    vertex 70.92668810263139 76.0 12.962606937437869
    vertex 70.62549028988803 76.0 13.825217587451217
  endloop
endfacet
facet normal 3.076668894819594e-32 1.0 -5.9646583792472e-31
  outer loop
    vertex 83.0 76.0 20.0
    vertex 70.62549028988803 76.0 13.825217587451217
    vertex 70.11129547900575 76.0 14.58047976204991
  endloop
endfacet
facet normal 3.076668894819594e-32 1.0 -5.9646583792472e-31
  outer loop
    vertex 83.0 76.0 20.0
    vertex 70.11129547900575 76.0 14.58047976204991
    vertex 69.41914519659902 76.0 15.176923592164803
  endloop
endfacet
facet normal 3.076668894819594e-32 1.0 -5.9646583792472e-31
  outer loop
    vertex 83.0 76.0 20.0
    vertex 69.41914519659902 76.0 15.176923592164803
    vertex 68.59620834058147 76.0 15.573902416443602
  endloop
endfacet
facet normal 3.076668894819594e-32 1.0 -5.9646583792472e-31
  outer loop
    vertex 83.0 76.0 20.0
    vertex 68.59620834058147 76.0 15.573902416443602
    vertex 67.69856669772324 76.0 15.74436278405023
  endloop
endfacet
facet normal 3.076668894819594e-32 1.0 -5.9646583792472e-31
  outer loop
    vertex 83.0 76.0 20.0
    vertex 67.69856669772324 76.0 15.74436278405023
    vertex 2.9999999999999947 76.0 20.0
  endloop
endfacet
facet normal 1.0 -0.0 -0.0
  outer loop
    vertex 86.0 73.0 0.0
    vertex 86.0 3.0 20.0
    vertex 86.0 3.0 0.0
  endloop
endfacet
facet normal 1.0 -0.0 -0.0
  outer loop
    vertex 86.0 3.0 20.0
    vertex 86.0 73.0 0.0
    vertex 86.0 73.0 20.0
  endloop
endfacet
facet normal 1.4272647167634082e-17 1.0 -7.049916206369744e-17
  outer loop
    vertex 3.0 3.0 20.0
    vertex 83.0 3.0 0.0
    vertex 3.0 3.0 0.0
  endloop
endfacet
facet normal 1.4272647167634082e-17 1.0 -7.049916206369744e-17
  outer loop
    vertex 83.0 3.0 0.0
    vertex 3.0 3.0 20.0
    vertex 83.0 3.0 20.0
  endloop
endfacet
facet normal -1.0 0.0 0.0
  outer loop
    vertex 83.0 73.0 20.0
    vertex 83.0 3.0 0.0
    vertex 83.0 3.0 20.0
  endloop
endfacet
facet normal -1.0 0.0 0.0
  outer loop
    vertex 83.0 3.0 0.0
    vertex 83.0 73.0 20.0
    vertex 83.0 73.0 0.0
  endloop
endfacet
facet normal -4.567247093642906e-17 -1.0 2.8199664825478977e-16
  outer loop
    vertex 83.0 73.0 0.0
    vertex 68.21260693743788 73.0 8.823311897368626
    vertex 3.0 73.0 0.0
  endloop
endfacet
facet normal -4.567247093642906e-17 -1.0 2.8199664825478977e-16
  outer loop
    vertex 68.21260693743788 73.0 8.823311897368626
    vertex 83.0 73.0 0.0
    vertex 69.07521758745122 73.0 9.12450971011197
  endloop
endfacet
facet normal -4.567247093642906e-17 -1.0 2.8199664825478977e-16
  outer loop
    vertex 69.07521758745122 73.0 9.12450971011197
    vertex 83.0 73.0 0.0
    vertex 69.83047976204992 73.0 9.638704520994267
  endloop
endfacet
facet normal -4.567247093642906e-17 -1.0 2.8199664825478977e-16
  outer loop
    vertex 69.83047976204992 73.0 9.638704520994267
    vertex 83.0 73.0 0.0
    vertex 83.0 73.0 20.0
  endloop
endfacet
facet normal -4.567247093642906e-17 -1.0 2.8199664825478977e-16
  outer loop
    vertex 3.0 73.0 0.0
    vertex 68.21260693743788 73.0 8.823311897368626
    vertex 67.30143330227679 73.0 8.75563721594977
  endloop
endfacet
facet normal -4.567247093642906e-17 -1.0 2.8199664825478977e-16
  outer loop
    vertex 69.83047976204992 73.0 9.638704520994267
    vertex 83.0 73.0 20.0
    vertex 70.42692359216483 73.0 10.330854803400987
  endloop
endfacet
facet normal -4.567247093642906e-17 -1.0 2.8199664825478977e-16
  outer loop
    vertex 70.42692359216483 73.0 10.330854803400987
    vertex 83.0 73.0 20.0
    vertex 70.82390241644362 73.0 11.153791659418536
  endloop
endfacet
facet normal -4.567247093642906e-17 -1.0 2.8199664825478977e-16
  outer loop
    vertex 70.82390241644362 73.0 11.153791659418536
    vertex 83.0 73.0 20.0
    vertex 70.99436278405025 73.0 12.051433302276774
  endloop
endfacet
facet normal -4.567247093642906e-17 -1.0 2.8199664825478977e-16
  outer loop
    vertex 70.99436278405025 73.0 12.051433302276774
    vertex 83.0 73.0 20.0
    vertex 70.97961483976141 73.0 12.25
  endloop
endfacet
facet normal -4.567247093642906e-17 -1.0 2.8199664825478977e-16
  outer loop
    vertex 70.97961483976141 73.0 12.25
    vertex 83.0 73.0 20.0
    vertex 70.92668810263139 73.0 12.962606937437869
  endloop
endfacet
facet normal -4.567247093642906e-17 -1.0 2.8199664825478977e-16
  outer loop
    vertex 70.92668810263139 73.0 12.962606937437869
    vertex 83.0 73.0 20.0
    vertex 70.62549028988803 73.0 13.825217587451217
  endloop
endfacet
facet normal -4.567247093642906e-17 -1.0 2.8199664825478977e-16
  outer loop
    vertex 70.62549028988803 73.0 13.825217587451217
    vertex 83.0 73.0 20.0
    vertex 70.11129547900575 73.0 14.58047976204991
  endloop
endfacet
facet normal -4.567247093642906e-17 -1.0 2.8199664825478977e-16
  outer loop
    vertex 70.11129547900575 73.0 14.58047976204991
    vertex 83.0 73.0 20.0
    vertex 69.41914519659902 73.0 15.176923592164803
  endloop
endfacet
facet normal -4.567247093642906e-17 -1.0 2.8199664825478977e-16
  outer loop
    vertex 69.41914519659902 73.0 15.176923592164803
    vertex 83.0 73.0 20.0
    vertex 68.59620834058147 73.0 15.573902416443602
  endloop
endfacet
facet normal -4.567247093642906e-17 -1.0 2.8199664825478977e-16
  outer loop
    vertex 68.59620834058147 73.0 15.573902416443602
    vertex 83.0 73.0 20.0
    vertex 67.69856669772324 73.0 15.74436278405023
  endloop
endfacet
facet normal -4.567247093642906e-17 -1.0 2.8199664825478977e-16
  outer loop
    vertex 67.30143330227679 73.0 8.75563721594977
    vertex 3.0 73.0 20.0
    vertex 3.0 73.0 0.0
  endloop
endfacet
facet normal -4.567247093642906e-17 -1.0 2.8199664825478977e-16
  outer loop
    vertex 3.0 73.0 20.0
    vertex 67.30143330227679 73.0 8.75563721594977
    vertex 66.40379165941854 73.0 8.926097583556396
  endloop
endfacet
facet normal -4.567247093642906e-17 -1.0 2.8199664825478977e-16
  outer loop
    vertex 3.0 73.0 20.0
    vertex 66.40379165941854 73.0 8.926097583556396
    vertex 65.580854803401 73.0 9.323076407835197
  endloop
endfacet
facet normal -4.567247093642906e-17 -1.0 2.8199664825478977e-16
  outer loop
    vertex 3.0 73.0 20.0
    vertex 65.580854803401 73.0 9.323076407835197
    vertex 64.88870452099427 73.0 9.91952023795009
  endloop
endfacet
facet normal -4.567247093642906e-17 -1.0 2.8199664825478977e-16
  outer loop
    vertex 3.0 73.0 20.0
    vertex 64.88870452099427 73.0 9.91952023795009
    vertex 64.37450971011198 73.0 10.674782412548783
  endloop
endfacet
facet normal -4.567247093642906e-17 -1.0 2.8199664825478977e-16
  outer loop
    vertex 3.0 73.0 20.0
    vertex 64.37450971011198 73.0 10.674782412548783
    vertex 64.07331189736864 73.0 11.537393062562133
  endloop
endfacet
facet normal -4.567247093642906e-17 -1.0 2.8199664825478977e-16
  outer loop
    vertex 3.0 73.0 20.0
    vertex 64.07331189736864 73.0 11.537393062562133
    vertex 64.00563721594978 73.0 12.448566697723226
  endloop
endfacet
facet normal -4.567247093642906e-17 -1.0 2.8199664825478977e-16
  outer loop
    vertex 3.0 73.0 20.0
    vertex 64.00563721594978 73.0 12.448566697723226
    vertex 64.17609758355641 73.0 13.346208340581464
  endloop
endfacet
facet normal -4.567247093642906e-17 -1.0 2.8199664825478977e-16
  outer loop
    vertex 3.0 73.0 20.0
    vertex 64.17609758355641 73.0 13.346208340581464
    vertex 64.57307640783522 73.0 14.169145196599017
  endloop
endfacet
facet normal -4.567247093642906e-17 -1.0 2.8199664825478977e-16
  outer loop
    vertex 3.0 73.0 20.0
    vertex 64.57307640783522 73.0 14.169145196599017
    vertex 65.1695202379501 73.0 14.861295479005735
  endloop
endfacet
facet normal -4.567247093642906e-17 -1.0 2.8199664825478977e-16
  outer loop
    vertex 3.0 73.0 20.0
    vertex 65.1695202379501 73.0 14.861295479005735
    vertex 65.9247824125488 73.0 15.37549028988803
  endloop
endfacet
facet normal -4.567247093642906e-17 -1.0 2.8199664825478977e-16
  outer loop
    vertex 3.0 73.0 20.0
    vertex 65.9247824125488 73.0 15.37549028988803
    vertex 66.78739306256215 73.0 15.676688102631374
  endloop
endfacet
facet normal -4.567247093642906e-17 -1.0 2.8199664825478977e-16
  outer loop
    vertex 3.0 73.0 20.0
    vertex 66.78739306256215 73.0 15.676688102631374
    vertex 67.50000000000001 73.0 15.729614839761393
  endloop
endfacet
facet normal -4.567247093642906e-17 -1.0 2.8199664825478977e-16
  outer loop
    vertex 3.0 73.0 20.0
    vertex 67.50000000000001 73.0 15.729614839761393
    vertex 67.69856669772324 73.0 15.74436278405023
  endloop
endfacet
facet normal -4.567247093642906e-17 -1.0 2.8199664825478977e-16
  outer loop
    vertex 3.0 73.0 20.0
    vertex 67.69856669772324 73.0 15.74436278405023
    vertex 83.0 73.0 20.0
  endloop
endfacet
facet normal 1.0 -4.708061484967705e-17 -9.693634783758396e-17
  outer loop
    vertex 3.0 73.0 0.0
    vertex 3.0 3.0 20.0
    vertex 3.0 3.0 0.0
  endloop
endfacet
facet normal 1.0 -4.708061484967705e-17 -9.693634783758396e-17
  outer loop
    vertex 3.0 3.0 20.0
    vertex 3.0 73.0 0.0
    vertex 3.0000000000000036 45.74999999999999 8.5
  endloop
endfacet
facet normal 1.0 -4.708061484967705e-17 -9.693634783758396e-17
  outer loop
    vertex 3.0000000000000036 45.74999999999999 8.5
    vertex 3.0 73.0 0.0
    vertex 3.0000000000000036 54.74999999999999 8.5
  endloop
endfacet
facet normal 1.0 -4.708061484967705e-17 -9.693634783758396e-17
  outer loop
    vertex 3.0000000000000036 54.74999999999999 8.5
    vertex 3.0 73.0 0.0
    vertex 3.0000000000000036 54.74999999999999 10.5
  endloop
endfacet
facet normal 1.0 -4.708061484967705e-17 -9.693634783758396e-17
  outer loop
    vertex 3.0 3.0 20.0
    vertex 3.0000000000000036 47.74999999999999 12.5
    vertex 3.0 73.0 20.0
  endloop
endfacet
facet normal 1.0 -4.708061484967705e-17 -9.693634783758396e-17
  outer loop
    vertex 3.0000000000000036 47.74999999999999 12.5
    vertex 3.0 3.0 20.0
    vertex 3.0000000000000036 45.74999999999999 10.5
  endloop
endfacet
facet normal 1.0 -4.708061484967705e-17 -9.693634783758396e-17
  outer loop
    vertex 3.0000000000000036 45.74999999999999 10.5
    vertex 3.0 3.0 20.0
    vertex 3.0000000000000036 45.74999999999999 8.5
  endloop
endfacet
facet normal 1.0 -4.708061484967705e-17 -9.693634783758396e-17
  outer loop
    vertex 3.0 73.0 20.0
    vertex 3.0000000000000036 47.74999999999999 12.5
    vertex 3.0000000000000036 52.74999999999999 12.5
  endloop
endfacet
facet normal 1.0 -4.708061484967705e-17 -9.693634783758396e-17
  outer loop
    vertex 3.0 73.0 20.0
    vertex 3.0000000000000036 52.74999999999999 12.5
    vertex 3.0000000000000036 54.74999999999999 10.5
  endloop
endfacet
facet normal 1.0 -4.708061484967705e-17 -9.693634783758396e-17
  outer loop
    vertex 3.0 73.0 20.0
    vertex 3.0000000000000036 54.74999999999999 10.5
    vertex 3.0 73.0 0.0
  endloop
endfacet
facet normal -0.9914448613738109 0.1305261922200477 -2.988594794531345e-19
  outer loop
    vertex 0.10222252113279631 73.77645713530755 20.0
    vertex 3.524958103184872e-15 72.99999999999999 0.0
    vertex 3.524958103184872e-15 72.99999999999999 20.0
  endloop
endfacet
facet normal -0.9914448613738109 0.1305261922200477 -2.988594794531345e-19
  outer loop
    vertex 3.524958103184872e-15 72.99999999999999 0.0
    vertex 0.10222252113279631 73.77645713530755 20.0
    vertex 0.10222252113279631 73.77645713530755 0.0
  endloop
endfacet
facet normal -0.9238795325112863 0.3826834323650914 -0.0
  outer loop
    vertex 0.401923788646683 74.49999999999999 20.0
    vertex 0.10222252113279631 73.77645713530755 0.0
    vertex 0.10222252113279631 73.77645713530755 20.0
  endloop
endfacet
facet normal -0.9238795325112863 0.3826834323650914 -0.0
  outer loop
    vertex 0.10222252113279631 73.77645713530755 0.0
    vertex 0.401923788646683 74.49999999999999 20.0
    vertex 0.401923788646683 74.49999999999999 0.0
  endloop
endfacet
facet normal -0.7933533402912394 0.6087614290087153 -0.0
  outer loop
    vertex 0.8786796564403558 75.12132034355963 20.0
    vertex 0.401923788646683 74.49999999999999 0.0
    vertex 0.401923788646683 74.49999999999999 20.0
  endloop
endfacet
facet normal -0.7933533402912394 0.6087614290087153 -0.0
  outer loop
    vertex 0.401923788646683 74.49999999999999 0.0
    vertex 0.8786796564403558 75.12132034355963 20.0
    vertex 0.8786796564403558 75.12132034355963 0.0
  endloop
endfacet
facet normal -0.6087614290087233 0.7933533402912332 -0.0
  outer loop
    vertex 0.8786796564403558 75.12132034355963 20.0
    vertex 1.4999999999999964 75.59807621135332 0.0
    vertex 0.8786796564403558 75.12132034355963 0.0
  endloop
endfacet
facet normal -0.6087614290087233 0.7933533402912332 -0.0
  outer loop
    vertex 1.4999999999999964 75.59807621135332 0.0
    vertex 0.8786796564403558 75.12132034355963 20.0
    vertex 1.4999999999999964 75.59807621135332 20.0
  endloop
endfacet
facet normal -0.3826834323650948 0.9238795325112849 -0.0
  outer loop
    vertex 1.4999999999999964 75.59807621135332 20.0
    vertex 2.2235428646924333 75.89777747886721 0.0
    vertex 1.4999999999999964 75.59807621135332 0.0
  endloop
endfacet
facet normal -0.3826834323650948 0.9238795325112849 -0.0
  outer loop
    vertex 2.2235428646924333 75.89777747886721 0.0
    vertex 1.4999999999999964 75.59807621135332 20.0
    vertex 2.2235428646924333 75.89777747886721 20.0
  endloop
endfacet
facet normal -0.1305261922200448 0.9914448613738114 -0.0
  outer loop
    vertex 2.2235428646924333 75.89777747886721 20.0
    vertex 2.9999999999999947 76.0 0.0
    vertex 2.2235428646924333 75.89777747886721 0.0
  endloop
endfacet
facet normal -0.1305261922200448 0.9914448613738114 -0.0
  outer loop
    vertex 2.9999999999999947 76.0 0.0
    vertex 2.2235428646924333 75.89777747886721 20.0
    vertex 2.9999999999999947 76.0 20.0
  endloop
endfacet
facet normal 0.13052619222004555 0.9914448613738114 -3.743075290124328e-20
  outer loop
    vertex 83.0 76.0 20.0
    vertex 83.77645713530757 75.89777747886721 0.0
    vertex 83.0 76.0 0.0
  endloop
endfacet
facet normal 0.13052619222004555 0.9914448613738114 -3.743075290124328e-20
  outer loop
    vertex 83.77645713530757 75.89777747886721 0.0
    vertex 83.0 76.0 20.0
    vertex 83.77645713530757 75.89777747886721 20.0
  endloop
endfacet
facet normal 0.38268343236509317 0.9238795325112855 0.0
  outer loop
    vertex 83.77645713530757 75.89777747886721 20.0
    vertex 84.5 75.59807621135332 0.0
    vertex 83.77645713530757 75.89777747886721 0.0
  endloop
endfacet
facet normal 0.38268343236509317 0.9238795325112855 0.0
  outer loop
    vertex 84.5 75.59807621135332 0.0
    vertex 83.77645713530757 75.89777747886721 20.0
    vertex 84.5 75.59807621135332 20.0
  endloop
endfacet
facet normal 0.6087614290087243 0.7933533402912326 0.0
  outer loop
    vertex 84.5 75.59807621135332 20.0
    vertex 85.12132034355965 75.12132034355963 0.0
    vertex 84.5 75.59807621135332 0.0
  endloop
endfacet
facet normal 0.6087614290087243 0.7933533402912326 0.0
  outer loop
    vertex 85.12132034355965 75.12132034355963 0.0
    vertex 84.5 75.59807621135332 20.0
    vertex 85.12132034355965 75.12132034355963 20.0
  endloop
endfacet
facet normal 0.7933533402912326 0.6087614290087243 0.0
  outer loop
    vertex 85.12132034355965 75.12132034355963 0.0
    vertex 85.59807621135332 74.5 20.0
    vertex 85.59807621135332 74.5 0.0
  endloop
endfacet
facet normal 0.7933533402912326 0.6087614290087243 0.0
  outer loop
    vertex 85.59807621135332 74.5 20.0
    vertex 85.12132034355965 75.12132034355963 0.0
    vertex 85.12132034355965 75.12132034355963 20.0
  endloop
endfacet
facet normal 0.9238795325112885 0.382683432365086 0.0
  outer loop
    vertex 85.59807621135332 74.5 0.0
    vertex 85.8977774788672 73.77645713530757 20.0
    vertex 85.8977774788672 73.77645713530757 0.0
  endloop
endfacet
facet normal 0.9238795325112885 0.382683432365086 0.0
  outer loop
    vertex 85.8977774788672 73.77645713530757 20.0
    vertex 85.59807621135332 74.5 0.0
    vertex 85.59807621135332 74.5 20.0
  endloop
endfacet
facet normal 0.9914448613738096 0.13052619222005785 -0.0
  outer loop
    vertex 85.8977774788672 73.77645713530757 0.0
    vertex 86.0 73.0 20.0
    vertex 86.0 73.0 0.0
  endloop
endfacet
facet normal 0.9914448613738096 0.13052619222005785 -0.0
  outer loop
    vertex 86.0 73.0 20.0
    vertex 85.8977774788672 73.77645713530757 0.0
    vertex 85.8977774788672 73.77645713530757 20.0
  endloop
endfacet
facet normal -0.1305261922200501 -0.9914448613738107 0.0
  outer loop
    vertex 3.0000000000000036 3.524958103184872e-16 20.0
    vertex 2.2235428646924422 0.1022225211327942 0.0
    vertex 3.0000000000000036 3.524958103184872e-16 0.0
  endloop
endfacet
facet normal -0.1305261922200501 -0.9914448613738107 0.0
  outer loop
    vertex 2.2235428646924422 0.1022225211327942 0.0
    vertex 3.0000000000000036 3.524958103184872e-16 20.0
    vertex 2.2235428646924422 0.1022225211327942 20.0
  endloop
endfacet
facet normal -0.38268343236508867 -0.9238795325112874 -0.0
  outer loop
    vertex 2.2235428646924422 0.1022225211327942 20.0
    vertex 1.5000000000000047 0.40192378864668193 0.0
    vertex 2.2235428646924422 0.1022225211327942 0.0
  endloop
endfacet
facet normal -0.38268343236508867 -0.9238795325112874 -0.0
  outer loop
    vertex 1.5000000000000047 0.40192378864668193 0.0
    vertex 2.2235428646924422 0.1022225211327942 20.0
    vertex 1.5000000000000047 0.40192378864668193 20.0
  endloop
endfacet
facet normal -0.6087614290087194 -0.7933533402912362 -0.0
  outer loop
    vertex 1.5000000000000047 0.40192378864668193 20.0
    vertex 0.8786796564403604 0.8786796564403551 0.0
    vertex 1.5000000000000047 0.40192378864668193 0.0
  endloop
endfacet
facet normal -0.6087614290087194 -0.7933533402912362 -0.0
  outer loop
    vertex 0.8786796564403604 0.8786796564403551 0.0
    vertex 1.5000000000000047 0.40192378864668193 20.0
    vertex 0.8786796564403604 0.8786796564403551 20.0
  endloop
endfacet
facet normal -0.7933533402912342 -0.6087614290087219 -0.0
  outer loop
    vertex 0.4019237886466865 1.4999999999999964 20.0
    vertex 0.8786796564403604 0.8786796564403551 0.0
    vertex 0.8786796564403604 0.8786796564403551 20.0
  endloop
endfacet
facet normal -0.7933533402912342 -0.6087614290087219 -0.0
  outer loop
    vertex 0.8786796564403604 0.8786796564403551 0.0
    vertex 0.4019237886466865 1.4999999999999964 20.0
    vertex 0.4019237886466865 1.4999999999999964 0.0
  endloop
endfacet
facet normal -0.9238795325112862 -0.38268343236509156 -0.0
  outer loop
    vertex 0.10222252113279667 2.2235428646924325 20.0
    vertex 0.4019237886466865 1.4999999999999964 0.0
    vertex 0.4019237886466865 1.4999999999999964 20.0
  endloop
endfacet
facet normal -0.9238795325112862 -0.38268343236509156 -0.0
  outer loop
    vertex 0.4019237886466865 1.4999999999999964 0.0
    vertex 0.10222252113279667 2.2235428646924325 20.0
    vertex 0.10222252113279667 2.2235428646924325 0.0
  endloop
endfacet
facet normal -0.9914448613738103 -0.13052619222005266 0.0
  outer loop
    vertex 3.524958103184872e-16 2.9999999999999973 20.0
    vertex 0.10222252113279667 2.2235428646924325 0.0
    vertex 0.10222252113279667 2.2235428646924325 20.0
  endloop
endfacet
facet normal -0.9914448613738103 -0.13052619222005266 0.0
  outer loop
    vertex 0.10222252113279667 2.2235428646924325 0.0
    vertex 3.524958103184872e-16 2.9999999999999973 20.0
    vertex 3.524958103184872e-16 2.9999999999999973 0.0
  endloop
endfacet
facet normal -0.0 -0.0 1.0
  outer loop
    vertex 0.10222252113279667 2.2235428646924325 20.0
    vertex 3.524958103184872e-15 72.99999999999999 20.0
    vertex 3.524958103184872e-16 2.9999999999999973 20.0
  endloop
endfacet
facet normal -0.0 -0.0 1.0
  outer loop
    vertex 3.524958103184872e-15 72.99999999999999 20.0
    vertex 0.10222252113279667 2.2235428646924325 20.0
    vertex 0.10222252113279631 73.77645713530755 20.0
  endloop
endfacet
facet normal -0.0 -0.0 1.0
  outer loop
    vertex 0.10222252113279631 73.77645713530755 20.0
    vertex 0.10222252113279667 2.2235428646924325 20.0
    vertex 0.401923788646683 74.49999999999999 20.0
  endloop
endfacet
facet normal -0.0 -0.0 1.0
  outer loop
    vertex 0.401923788646683 74.49999999999999 20.0
    vertex 0.10222252113279667 2.2235428646924325 20.0
    vertex 0.4019237886466865 1.4999999999999964 20.0
  endloop
endfacet
facet normal -0.0 -0.0 1.0
  outer loop
    vertex 0.401923788646683 74.49999999999999 20.0
    vertex 0.4019237886466865 1.4999999999999964 20.0
    vertex 0.8786796564403558 75.12132034355963 20.0
  endloop
endfacet
facet normal -0.0 -0.0 1.0
  outer loop
    vertex 0.8786796564403558 75.12132034355963 20.0
    vertex 0.4019237886466865 1.4999999999999964 20.0
    vertex 0.8786796564403604 0.8786796564403551 20.0
  endloop
endfacet
facet normal -0.0 -0.0 1.0
  outer loop
    vertex 0.8786796564403558 75.12132034355963 20.0
    vertex 0.8786796564403604 0.8786796564403551 20.0
    vertex 1.4999999999999964 75.59807621135332 20.0
  endloop
endfacet
facet normal -0.0 -0.0 1.0
  outer loop
    vertex 1.4999999999999964 75.59807621135332 20.0
    vertex 0.8786796564403604 0.8786796564403551 20.0
    vertex 1.5000000000000047 0.40192378864668193 20.0
  endloop
endfacet
facet normal -0.0 -0.0 1.0
  outer loop
    vertex 1.4999999999999964 75.59807621135332 20.0
    vertex 1.5000000000000047 0.40192378864668193 20.0
    vertex 2.2235428646924333 75.89777747886721 20.0
  endloop
endfacet
facet normal -0.0 -0.0 1.0
  outer loop
    vertex 2.2235428646924333 75.89777747886721 20.0
    vertex 1.5000000000000047 0.40192378864668193 20.0
    vertex 2.2235428646924422 0.1022225211327942 20.0
  endloop
endfacet
facet normal -0.0 -0.0 1.0
  outer loop
    vertex 2.2235428646924333 75.89777747886721 20.0
    vertex 2.2235428646924422 0.1022225211327942 20.0
    vertex 2.9999999999999947 76.0 20.0
  endloop
endfacet
facet normal -0.0 -0.0 1.0
  outer loop
    vertex 2.9999999999999947 76.0 20.0
    vertex 2.2235428646924422 0.1022225211327942 20.0
    vertex 3.0 3.0 20.0
  endloop
endfacet
facet normal -0.0 -0.0 1.0
  outer loop
    vertex 3.0 3.0 20.0
    vertex 2.2235428646924422 0.1022225211327942 20.0
    vertex 3.0000000000000036 3.524958103184872e-16 20.0
  endloop
endfacet
facet normal -0.0 -0.0 1.0
  outer loop
    vertex 3.0 3.0 20.0
    vertex 3.0000000000000036 3.524958103184872e-16 20.0
    vertex 83.0 3.0 20.0
  endloop
endfacet
facet normal -0.0 -0.0 1.0
  outer loop
    vertex 83.0 3.0 20.0
    vertex 3.0000000000000036 3.524958103184872e-16 20.0
    vertex 83.0 5.639932965095795e-15 20.0
  endloop
endfacet
facet normal -0.0 -0.0 1.0
  outer loop
    vertex 83.0 3.0 20.0
    vertex 83.0 5.639932965095795e-15 20.0
    vertex 83.77645713530757 0.10222252113280089 20.0
  endloop
endfacet
facet normal -0.0 -0.0 1.0
  outer loop
    vertex 83.0 3.0 20.0
    vertex 83.77645713530757 0.10222252113280089 20.0
    vertex 83.0 73.0 20.0
  endloop
endfacet
facet normal -0.0 -0.0 1.0
  outer loop
    vertex 83.0 73.0 20.0
    vertex 83.77645713530757 0.10222252113280089 20.0
    vertex 83.0 76.0 20.0
  endloop
endfacet
facet normal -0.0 -0.0 1.0
  outer loop
    vertex 83.0 76.0 20.0
    vertex 83.77645713530757 0.10222252113280089 20.0
    vertex 83.77645713530757 75.89777747886721 20.0
  endloop
endfacet
facet normal -0.0 -0.0 1.0
  outer loop
    vertex 83.77645713530757 75.89777747886721 20.0
    vertex 83.77645713530757 0.10222252113280089 20.0
    vertex 84.5 0.401923788646689 20.0
  endloop
endfacet
facet normal -0.0 -0.0 1.0
  outer loop
    vertex 83.77645713530757 75.89777747886721 20.0
    vertex 84.5 0.401923788646689 20.0
    vertex 84.5 75.59807621135332 20.0
  endloop
endfacet
facet normal -0.0 -0.0 1.0
  outer loop
    vertex 84.5 75.59807621135332 20.0
    vertex 84.5 0.401923788646689 20.0
    vertex 85.12132034355965 0.8786796564403615 20.0
  endloop
endfacet
facet normal -0.0 -0.0 1.0
  outer loop
    vertex 84.5 75.59807621135332 20.0
    vertex 85.12132034355965 0.8786796564403615 20.0
    vertex 85.12132034355965 75.12132034355963 20.0
  endloop
endfacet
facet normal -0.0 -0.0 1.0
  outer loop
    vertex 85.12132034355965 75.12132034355963 20.0
    vertex 85.12132034355965 0.8786796564403615 20.0
    vertex 85.59807621135332 1.500000000000003 20.0
  endloop
endfacet
facet normal -0.0 -0.0 1.0
  outer loop
    vertex 85.12132034355965 75.12132034355963 20.0
    vertex 85.59807621135332 1.500000000000003 20.0
    vertex 85.59807621135332 74.5 20.0
  endloop
endfacet
facet normal -0.0 -0.0 1.0
  outer loop
    vertex 85.59807621135332 74.5 20.0
    vertex 85.59807621135332 1.500000000000003 20.0
    vertex 85.89777747886721 2.223542864692439 20.0
  endloop
endfacet
facet normal -0.0 -0.0 1.0
  outer loop
    vertex 85.59807621135332 74.5 20.0
    vertex 85.89777747886721 2.223542864692439 20.0
    vertex 85.8977774788672 73.77645713530757 20.0
  endloop
endfacet
facet normal -0.0 -0.0 1.0
  outer loop
    vertex 85.8977774788672 73.77645713530757 20.0
    vertex 85.89777747886721 2.223542864692439 20.0
    vertex 86.0 73.0 20.0
  endloop
endfacet
facet normal -0.0 -0.0 1.0
  outer loop
    vertex 86.0 73.0 20.0
    vertex 85.89777747886721 2.223542864692439 20.0
    vertex 86.0 3.0 20.0
  endloop
endfacet
facet normal -0.0 -0.0 1.0
  outer loop
    vertex 2.9999999999999947 76.0 20.0
    vertex 3.0 73.0 20.0
    vertex 83.0 76.0 20.0
  endloop
endfacet
facet normal -0.0 -0.0 1.0
  outer loop
    vertex 3.0 73.0 20.0
    vertex 2.9999999999999947 76.0 20.0
    vertex 3.0 3.0 20.0
  endloop
endfacet
facet normal -0.0 -0.0 1.0
  outer loop
    vertex 83.0 76.0 20.0
    vertex 3.0 73.0 20.0
    vertex 83.0 73.0 20.0
  endloop
endfacet
facet normal 0.608761429008722 -0.7933533402912342 0.0
  outer loop
    vertex 85.12132034355965 0.8786796564403615 20.0
    vertex 84.5 0.401923788646689 0.0
    vertex 85.12132034355965 0.8786796564403615 0.0
  endloop
endfacet
facet normal 0.608761429008722 -0.7933533402912342 0.0
  outer loop
    vertex 84.5 0.401923788646689 0.0
    vertex 85.12132034355965 0.8786796564403615 20.0
    vertex 84.5 0.401923788646689 20.0
  endloop
endfacet
facet normal 0.3826834323650878 -0.9238795325112877 -0.0
  outer loop
    vertex 84.5 0.401923788646689 20.0
    vertex 83.77645713530757 0.10222252113280089 0.0
    vertex 84.5 0.401923788646689 0.0
  endloop
endfacet
facet normal 0.3826834323650878 -0.9238795325112877 -0.0
  outer loop
    vertex 83.77645713530757 0.10222252113280089 0.0
    vertex 84.5 0.401923788646689 20.0
    vertex 83.77645713530757 0.10222252113280089 20.0
  endloop
endfacet
facet normal 0.13052619222005263 -0.9914448613738103 0.0
  outer loop
    vertex 83.77645713530757 0.10222252113280089 20.0
    vertex 83.0 5.639932965095795e-15 0.0
    vertex 83.77645713530757 0.10222252113280089 0.0
  endloop
endfacet
facet normal 0.13052619222005263 -0.9914448613738103 0.0
  outer loop
    vertex 83.0 5.639932965095795e-15 0.0
    vertex 83.77645713530757 0.10222252113280089 20.0
    vertex 83.0 5.639932965095795e-15 20.0
  endloop
endfacet
facet normal 0.9914448613738114 -0.1305261922200449 -0.0
  outer loop
    vertex 86.0 3.0 0.0
    vertex 85.89777747886721 2.223542864692439 20.0
    vertex 85.89777747886721 2.223542864692439 0.0
  endloop
endfacet
facet normal 0.9914448613738114 -0.1305261922200449 -0.0
  outer loop
    vertex 85.89777747886721 2.223542864692439 20.0
    vertex 86.0 3.0 0.0
    vertex 86.0 3.0 20.0
  endloop
endfacet
facet normal 0.9238795325112846 -0.38268343236509494 -0.0
  outer loop
    vertex 85.89777747886721 2.223542864692439 0.0
    vertex 85.59807621135332 1.500000000000003 20.0
    vertex 85.59807621135332 1.500000000000003 0.0
  endloop
endfacet
facet normal 0.9238795325112846 -0.38268343236509494 -0.0
  outer loop
    vertex 85.59807621135332 1.500000000000003 20.0
    vertex 85.89777747886721 2.223542864692439 0.0
    vertex 85.89777747886721 2.223542864692439 20.0
  endloop
endfacet
facet normal 0.7933533402912336 -0.6087614290087229 -0.0
  outer loop
    vertex 85.59807621135332 1.500000000000003 0.0
    vertex 85.12132034355965 0.8786796564403615 20.0
    vertex 85.12132034355965 0.8786796564403615 0.0
  endloop
endfacet
facet normal 0.7933533402912336 -0.6087614290087229 -0.0
  outer loop
    vertex 85.12132034355965 0.8786796564403615 20.0
    vertex 85.59807621135332 1.500000000000003 0.0
    vertex 85.59807621135332 1.500000000000003 20.0
  endloop
endfacet
facet normal 0.07406798181139287 -1.9991440436001167e-31 -0.9972531945651452
  outer loop
    vertex 67.50000000000001 76.0 15.729614839761393
    vertex 66.78739306256215 73.0 15.676688102631374
    vertex 66.78739306256215 76.0 15.676688102631374
  endloop
endfacet
facet normal 0.07406798181139287 -1.9991440436001167e-31 -0.9972531945651452
  outer loop
    vertex 66.78739306256215 73.0 15.676688102631374
    vertex 67.50000000000001 76.0 15.729614839761393
    vertex 67.50000000000001 73.0 15.729614839761393
  endloop
endfacet
facet normal 0.07406798181139256 -1.9991440436001167e-31 -0.9972531945651452
  outer loop
    vertex 67.69856669772324 76.0 15.74436278405023
    vertex 67.50000000000001 73.0 15.729614839761393
    vertex 67.50000000000001 76.0 15.729614839761393
  endloop
endfacet
facet normal 0.07406798181139256 -1.9991440436001167e-31 -0.9972531945651452
  outer loop
    vertex 67.50000000000001 73.0 15.729614839761393
    vertex 67.69856669772324 76.0 15.74436278405023
    vertex 67.69856669772324 73.0 15.74436278405023
  endloop
endfacet
facet normal -0.18656394301005666 -1.9709819684791588e-31 -0.9824428203048462
  outer loop
    vertex 68.59620834058147 76.0 15.573902416443602
    vertex 67.69856669772324 73.0 15.74436278405023
    vertex 67.69856669772324 76.0 15.74436278405023
  endloop
endfacet
facet normal -0.18656394301005666 -1.9709819684791588e-31 -0.9824428203048462
  outer loop
    vertex 67.69856669772324 73.0 15.74436278405023
    vertex 68.59620834058147 76.0 15.573902416443602
    vertex 68.59620834058147 73.0 15.573902416443602
  endloop
endfacet
facet normal -0.4344818434268641 -1.8085007294080545e-31 -0.9006805914042971
  outer loop
    vertex 69.41914519659902 76.0 15.176923592164803
    vertex 68.59620834058147 73.0 15.573902416443602
    vertex 68.59620834058147 76.0 15.573902416443602
  endloop
endfacet
facet normal -0.4344818434268641 -1.8085007294080545e-31 -0.9006805914042971
  outer loop
    vertex 68.59620834058147 73.0 15.573902416443602
    vertex 69.41914519659902 76.0 15.176923592164803
    vertex 69.41914519659902 73.0 15.176923592164803
  endloop
endfacet
facet normal -0.6527905242293186 -1.5227731543165677e-31 -0.757538468644604
  outer loop
    vertex 70.11129547900575 76.0 14.58047976204991
    vertex 69.41914519659902 73.0 15.176923592164803
    vertex 69.41914519659902 76.0 15.176923592164803
  endloop
endfacet
facet normal -0.6527905242293186 -1.5227731543165677e-31 -0.757538468644604
  outer loop
    vertex 69.41914519659902 73.0 15.176923592164803
    vertex 70.11129547900575 76.0 14.58047976204991
    vertex 70.11129547900575 73.0 14.58047976204991
  endloop
endfacet
facet normal -0.8266126095929066 -1.1332711052600038e-31 -0.5627713511382798
  outer loop
    vertex 70.11129547900575 76.0 14.58047976204991
    vertex 70.62549028988803 73.0 13.825217587451217
    vertex 70.11129547900575 73.0 14.58047976204991
  endloop
endfacet
facet normal -0.8266126095929066 -1.1332711052600038e-31 -0.5627713511382798
  outer loop
    vertex 70.62549028988803 73.0 13.825217587451217
    vertex 70.11129547900575 76.0 14.58047976204991
    vertex 70.62549028988803 76.0 13.825217587451217
  endloop
endfacet
facet normal -0.9441024116546541 -6.665385031990485e-32 -0.32965229607552565
  outer loop
    vertex 70.62549028988803 76.0 13.825217587451217
    vertex 70.92668810263139 73.0 12.962606937437869
    vertex 70.62549028988803 73.0 13.825217587451217
  endloop
endfacet
facet normal -0.9441024116546541 -6.665385031990485e-32 -0.32965229607552565
  outer loop
    vertex 70.92668810263139 73.0 12.962606937437869
    vertex 70.62549028988803 76.0 13.825217587451217
    vertex 70.92668810263139 76.0 12.962606937437869
  endloop
endfacet
facet normal -0.9972531945651443 -1.5438240365204102e-32 -0.07406798181140435
  outer loop
    vertex 70.92668810263139 76.0 12.962606937437869
    vertex 70.97961483976141 73.0 12.25
    vertex 70.92668810263139 73.0 12.962606937437869
  endloop
endfacet
facet normal -0.9972531945651443 -1.5438240365204102e-32 -0.07406798181140435
  outer loop
    vertex 70.97961483976141 73.0 12.25
    vertex 70.92668810263139 76.0 12.962606937437869
    vertex 70.97961483976141 76.0 12.25
  endloop
endfacet
facet normal -0.9972531945651473 -1.5438240365196513e-32 -0.07406798181136649
  outer loop
    vertex 70.97961483976141 76.0 12.25
    vertex 70.99436278405025 73.0 12.051433302276774
    vertex 70.97961483976141 73.0 12.25
  endloop
endfacet
facet normal -0.9972531945651473 -1.5438240365196513e-32 -0.07406798181136649
  outer loop
    vertex 70.99436278405025 73.0 12.051433302276774
    vertex 70.97961483976141 76.0 12.25
    vertex 70.99436278405025 76.0 12.051433302276774
  endloop
endfacet
facet normal -0.9824428203048459 3.6829460157491165e-32 0.18656394301005852
  outer loop
    vertex 70.99436278405025 76.0 12.051433302276774
    vertex 70.82390241644362 73.0 11.153791659418536
    vertex 70.99436278405025 73.0 12.051433302276774
  endloop
endfacet
facet normal -0.9824428203048459 3.6829460157491165e-32 0.18656394301005852
  outer loop
    vertex 70.82390241644362 73.0 11.153791659418536
    vertex 70.99436278405025 76.0 12.051433302276774
    vertex 70.82390241644362 76.0 11.153791659418536
  endloop
endfacet
facet normal -0.9006805914042989 8.658729383401029e-32 0.43448184342686036
  outer loop
    vertex 70.82390241644362 76.0 11.153791659418536
    vertex 70.42692359216483 73.0 10.330854803400987
    vertex 70.82390241644362 73.0 11.153791659418536
  endloop
endfacet
facet normal -0.9006805914042989 8.658729383401029e-32 0.43448184342686036
  outer loop
    vertex 70.42692359216483 73.0 10.330854803400987
    vertex 70.82390241644362 76.0 11.153791659418536
    vertex 70.42692359216483 76.0 10.330854803400987
  endloop
endfacet
facet normal -0.7575384686445985 1.304443465280119e-31 0.6527905242293249
  outer loop
    vertex 70.42692359216483 76.0 10.330854803400987
    vertex 69.83047976204992 73.0 9.638704520994267
    vertex 70.42692359216483 73.0 10.330854803400987
  endloop
endfacet
facet normal -0.7575384686445985 1.304443465280119e-31 0.6527905242293249
  outer loop
    vertex 69.83047976204992 73.0 9.638704520994267
    vertex 70.42692359216483 76.0 10.330854803400987
    vertex 69.83047976204992 76.0 9.638704520994267
  endloop
endfacet
facet normal -0.5627713511382813 1.6541183257560396e-31 0.8266126095929057
  outer loop
    vertex 69.83047976204992 73.0 9.638704520994267
    vertex 69.07521758745122 76.0 9.12450971011197
    vertex 69.07521758745122 73.0 9.12450971011197
  endloop
endfacet
facet normal -0.5627713511382813 1.6541183257560396e-31 0.8266126095929057
  outer loop
    vertex 69.07521758745122 76.0 9.12450971011197
    vertex 69.83047976204992 73.0 9.638704520994267
    vertex 69.83047976204992 76.0 9.638704520994267
  endloop
endfacet
facet normal -0.32965229607552293 1.8910677558914649e-31 0.9441024116546552
  outer loop
    vertex 69.07521758745122 73.0 9.12450971011197
    vertex 68.21260693743788 76.0 8.823311897368626
    vertex 68.21260693743788 73.0 8.823311897368626
  endloop
endfacet
facet normal -0.32965229607552293 1.8910677558914649e-31 0.9441024116546552
  outer loop
    vertex 68.21260693743788 76.0 8.823311897368626
    vertex 69.07521758745122 73.0 9.12450971011197
    vertex 69.07521758745122 76.0 9.12450971011197
  endloop
endfacet
facet normal -0.07406798181139372 1.9991440436001167e-31 0.9972531945651452
  outer loop
    vertex 68.21260693743788 73.0 8.823311897368626
    vertex 67.30143330227679 76.0 8.75563721594977
    vertex 67.30143330227679 73.0 8.75563721594977
  endloop
endfacet
facet normal -0.07406798181139372 1.9991440436001167e-31 0.9972531945651452
  outer loop
    vertex 67.30143330227679 76.0 8.75563721594977
    vertex 68.21260693743788 73.0 8.823311897368626
    vertex 68.21260693743788 76.0 8.823311897368626
  endloop
endfacet
facet normal 0.1865639430100529 1.9709819684791605e-31 0.982442820304847
  outer loop
    vertex 67.30143330227679 73.0 8.75563721594977
    vertex 66.40379165941854 76.0 8.926097583556396
    vertex 66.40379165941854 73.0 8.926097583556396
  endloop
endfacet
facet normal 0.1865639430100529 1.9709819684791605e-31 0.982442820304847
  outer loop
    vertex 66.40379165941854 76.0 8.926097583556396
    vertex 67.30143330227679 73.0 8.75563721594977
    vertex 67.30143330227679 76.0 8.75563721594977
  endloop
endfacet
facet normal 0.43448184342686524 1.8085007294080527e-31 0.9006805914042963
  outer loop
    vertex 66.40379165941854 73.0 8.926097583556396
    vertex 65.580854803401 76.0 9.323076407835197
    vertex 65.580854803401 73.0 9.323076407835197
  endloop
endfacet
facet normal 0.43448184342686524 1.8085007294080527e-31 0.9006805914042963
  outer loop
    vertex 65.580854803401 76.0 9.323076407835197
    vertex 66.40379165941854 73.0 8.926097583556396
    vertex 66.40379165941854 76.0 8.926097583556396
  endloop
endfacet
facet normal 0.6527905242293186 1.5227731543165677e-31 0.757538468644604
  outer loop
    vertex 65.580854803401 73.0 9.323076407835197
    vertex 64.88870452099427 76.0 9.91952023795009
    vertex 64.88870452099427 73.0 9.91952023795009
  endloop
endfacet
facet normal 0.6527905242293186 1.5227731543165677e-31 0.757538468644604
  outer loop
    vertex 64.88870452099427 76.0 9.91952023795009
    vertex 65.580854803401 73.0 9.323076407835197
    vertex 65.580854803401 76.0 9.323076407835197
  endloop
endfacet
facet normal 0.8266126095929066 1.1332711052600038e-31 0.5627713511382798
  outer loop
    vertex 64.88870452099427 76.0 9.91952023795009
    vertex 64.37450971011198 73.0 10.674782412548783
    vertex 64.88870452099427 73.0 9.91952023795009
  endloop
endfacet
facet normal 0.8266126095929066 1.1332711052600038e-31 0.5627713511382798
  outer loop
    vertex 64.37450971011198 73.0 10.674782412548783
    vertex 64.88870452099427 76.0 9.91952023795009
    vertex 64.37450971011198 76.0 10.674782412548783
  endloop
endfacet
facet normal 0.9441024116546546 6.665385031990467e-32 0.3296522960755247
  outer loop
    vertex 64.37450971011198 76.0 10.674782412548783
    vertex 64.07331189736864 73.0 11.537393062562133
    vertex 64.37450971011198 73.0 10.674782412548783
  endloop
endfacet
facet normal 0.9441024116546546 6.665385031990467e-32 0.3296522960755247
  outer loop
    vertex 64.07331189736864 73.0 11.537393062562133
    vertex 64.37450971011198 76.0 10.674782412548783
    vertex 64.07331189736864 76.0 11.537393062562133
  endloop
endfacet
facet normal 0.9972531945651449 1.5438240365202493e-32 0.07406798181139633
  outer loop
    vertex 64.07331189736864 76.0 11.537393062562133
    vertex 64.00563721594978 73.0 12.448566697723226
    vertex 64.07331189736864 73.0 11.537393062562133
  endloop
endfacet
facet normal 0.9972531945651449 1.5438240365202493e-32 0.07406798181139633
  outer loop
    vertex 64.00563721594978 73.0 12.448566697723226
    vertex 64.07331189736864 76.0 11.537393062562133
    vertex 64.00563721594978 76.0 12.448566697723226
  endloop
endfacet
facet normal 0.9824428203048459 -3.6829460157491165e-32 -0.18656394301005852
  outer loop
    vertex 64.00563721594978 76.0 12.448566697723226
    vertex 64.17609758355641 73.0 13.346208340581464
    vertex 64.00563721594978 73.0 12.448566697723226
  endloop
endfacet
facet normal 0.9824428203048459 -3.6829460157491165e-32 -0.18656394301005852
  outer loop
    vertex 64.17609758355641 73.0 13.346208340581464
    vertex 64.00563721594978 76.0 12.448566697723226
    vertex 64.17609758355641 76.0 13.346208340581464
  endloop
endfacet
facet normal 0.9006805914042945 -8.658729383401203e-32 -0.4344818434268691
  outer loop
    vertex 64.17609758355641 76.0 13.346208340581464
    vertex 64.57307640783522 73.0 14.169145196599017
    vertex 64.17609758355641 73.0 13.346208340581464
  endloop
endfacet
facet normal 0.9006805914042945 -8.658729383401203e-32 -0.4344818434268691
  outer loop
    vertex 64.57307640783522 73.0 14.169145196599017
    vertex 64.17609758355641 76.0 13.346208340581464
    vertex 64.57307640783522 76.0 14.169145196599017
  endloop
endfacet
facet normal 0.7575384686446047 -1.3044434652801049e-31 -0.6527905242293178
  outer loop
    vertex 64.57307640783522 76.0 14.169145196599017
    vertex 65.1695202379501 73.0 14.861295479005735
    vertex 64.57307640783522 73.0 14.169145196599017
  endloop
endfacet
facet normal 0.7575384686446047 -1.3044434652801049e-31 -0.6527905242293178
  outer loop
    vertex 65.1695202379501 73.0 14.861295479005735
    vertex 64.57307640783522 76.0 14.169145196599017
    vertex 65.1695202379501 76.0 14.861295479005735
  endloop
endfacet
facet normal 0.562771351138279 -1.6541183257560424e-31 -0.8266126095929072
  outer loop
    vertex 65.9247824125488 76.0 15.37549028988803
    vertex 65.1695202379501 73.0 14.861295479005735
    vertex 65.1695202379501 76.0 14.861295479005735
  endloop
endfacet
facet normal 0.562771351138279 -1.6541183257560424e-31 -0.8266126095929072
  outer loop
    vertex 65.1695202379501 73.0 14.861295479005735
    vertex 65.9247824125488 76.0 15.37549028988803
    vertex 65.9247824125488 73.0 15.37549028988803
  endloop
endfacet
facet normal 0.32965229607552293 -1.8910677558914649e-31 -0.9441024116546552
  outer loop
    vertex 66.78739306256215 76.0 15.676688102631374
    vertex 65.9247824125488 73.0 15.37549028988803
    vertex 65.9247824125488 76.0 15.37549028988803
  endloop
endfacet
facet normal 0.32965229607552293 -1.8910677558914649e-31 -0.9441024116546552
  outer loop
    vertex 65.9247824125488 73.0 15.37549028988803
    vertex 66.78739306256215 76.0 15.676688102631374
    vertex 66.78739306256215 73.0 15.676688102631374
  endloop
endfacet
facet normal 2.546909530626672e-19 0.707106781186547 -0.707106781186548
  outer loop
    vertex 3.6171937843168985e-15 47.74999999999999 12.5
    vertex 3.0000000000000036 45.74999999999999 10.5
    vertex 3.524958103184872e-15 45.74999999999999 10.5
  endloop
endfacet
facet normal 2.546909530626672e-19 0.707106781186547 -0.707106781186548
  outer loop
    vertex 3.0000000000000036 45.74999999999999 10.5
    vertex 3.6171937843168985e-15 47.74999999999999 12.5
    vertex 3.0000000000000036 47.74999999999999 12.5
  endloop
endfacet
facet normal 6.7327337083455886e-18 2.483993117879244e-34 -1.0
  outer loop
    vertex 3.0000000000000036 52.74999999999999 12.5
    vertex 3.6171937843168985e-15 47.74999999999999 12.5
    vertex 3.432722422052845e-15 52.74999999999999 12.5
  endloop
endfacet
facet normal 6.7327337083455886e-18 2.483993117879244e-34 -1.0
  outer loop
    vertex 3.6171937843168985e-15 47.74999999999999 12.5
    vertex 3.0000000000000036 52.74999999999999 12.5
    vertex 3.0000000000000036 47.74999999999999 12.5
  endloop
endfacet
facet normal 9.266832369126173e-18 -0.707106781186548 -0.707106781186547
  outer loop
    vertex 3.0000000000000036 52.74999999999999 12.5
    vertex 3.524958103184872e-15 54.74999999999999 10.5
    vertex 3.0000000000000036 54.74999999999999 10.5
  endloop
endfacet
facet normal 9.266832369126173e-18 -0.707106781186548 -0.707106781186547
  outer loop
    vertex 3.524958103184872e-15 54.74999999999999 10.5
    vertex 3.0000000000000036 52.74999999999999 12.5
    vertex 3.432722422052845e-15 52.74999999999999 12.5
  endloop
endfacet
facet normal 6.372546308310645e-18 -1.0 -0.0
  outer loop
    vertex 3.0000000000000036 54.74999999999999 10.5
    vertex 3.524958103184872e-15 54.74999999999999 8.5
    vertex 3.0000000000000036 54.74999999999999 8.5
  endloop
endfacet
facet normal 6.372546308310645e-18 -1.0 -0.0
  outer loop
    vertex 3.524958103184872e-15 54.74999999999999 8.5
    vertex 3.0000000000000036 54.74999999999999 10.5
    vertex 3.524958103184872e-15 54.74999999999999 10.5
  endloop
endfacet
facet normal -6.7327337083455886e-18 -0.0 1.0
  outer loop
    vertex 3.0000000000000036 45.74999999999999 8.5
    vertex 3.524958103184872e-15 54.74999999999999 8.5
    vertex 3.524958103184872e-15 45.74999999999999 8.5
  endloop
endfacet
facet normal -6.7327337083455886e-18 -0.0 1.0
  outer loop
    vertex 3.524958103184872e-15 54.74999999999999 8.5
    vertex 3.0000000000000036 45.74999999999999 8.5
    vertex 3.0000000000000036 54.74999999999999 8.5
  endloop
endfacet
facet normal -6.372546308310645e-18 1.0 -0.0
  outer loop
    vertex 3.524958103184872e-15 45.74999999999999 10.5
    vertex 3.0000000000000036 45.74999999999999 8.5
    vertex 3.524958103184872e-15 45.74999999999999 8.5
  endloop
endfacet
facet normal -6.372546308310645e-18 1.0 -0.0
  outer loop
    vertex 3.0000000000000036 45.74999999999999 8.5
    vertex 3.524958103184872e-15 45.74999999999999 10.5
    vertex 3.0000000000000036 45.74999999999999 10.5
  endloop
endfacet
endsolid Case_v01
