G75*
%MOIN*%
%OFA0B0*%
%FSLAX25Y25*%
%IPPOS*%
%LPD*%
%AMOC8*
5,1,8,0,0,1.08239X$1,22.5*
%
%ADD10C,0.00400*%
%ADD11C,0.01600*%
%ADD12C,0.00000*%
%ADD13C,0.00500*%
%ADD14C,0.02000*%
D10*
X0163223Y0231207D02*
X0163824Y0231207D01*
X0163824Y0231808D01*
X0163223Y0231808D01*
X0163223Y0231207D01*
X0165105Y0231207D02*
X0166907Y0231207D01*
X0167507Y0231808D01*
X0167507Y0233609D01*
X0168775Y0233609D02*
X0169375Y0233609D01*
X0170576Y0232408D01*
X0170576Y0231207D02*
X0170576Y0233609D01*
X0171857Y0233009D02*
X0171857Y0232408D01*
X0174259Y0232408D01*
X0174259Y0231808D02*
X0174259Y0233009D01*
X0173659Y0233609D01*
X0172458Y0233609D01*
X0171857Y0233009D01*
X0172458Y0231207D02*
X0173659Y0231207D01*
X0174259Y0231808D01*
X0175514Y0231207D02*
X0176114Y0231808D01*
X0176114Y0234210D01*
X0176715Y0233609D02*
X0175514Y0233609D01*
X0177969Y0233609D02*
X0179170Y0233609D01*
X0178570Y0234210D02*
X0178570Y0231808D01*
X0177969Y0231207D01*
X0180451Y0231207D02*
X0182253Y0231207D01*
X0182853Y0231808D01*
X0182253Y0232408D01*
X0180451Y0232408D01*
X0180451Y0233009D02*
X0180451Y0231207D01*
X0180451Y0233009D02*
X0181052Y0233609D01*
X0182253Y0233609D01*
X0184135Y0233009D02*
X0184735Y0233609D01*
X0186537Y0233609D01*
X0186537Y0234810D02*
X0186537Y0231207D01*
X0184735Y0231207D01*
X0184135Y0231808D01*
X0184135Y0233009D01*
X0184135Y0237207D02*
X0184135Y0239009D01*
X0184735Y0239609D01*
X0186537Y0239609D01*
X0186537Y0237207D01*
X0187818Y0237808D02*
X0187818Y0239009D01*
X0188418Y0239609D01*
X0189619Y0239609D01*
X0190220Y0239009D01*
X0190220Y0237808D01*
X0189619Y0237207D01*
X0188418Y0237207D01*
X0187818Y0237808D01*
X0191474Y0237207D02*
X0192675Y0237207D01*
X0192075Y0237207D02*
X0192075Y0239609D01*
X0192675Y0239609D01*
X0193930Y0239609D02*
X0195131Y0239609D01*
X0194530Y0240210D02*
X0194530Y0237808D01*
X0193930Y0237207D01*
X0196412Y0237207D02*
X0196412Y0239009D01*
X0197012Y0239609D01*
X0198814Y0239609D01*
X0198814Y0237207D01*
X0200095Y0238408D02*
X0202497Y0238408D01*
X0202497Y0237808D02*
X0202497Y0239009D01*
X0201896Y0239609D01*
X0200695Y0239609D01*
X0200095Y0239009D01*
X0200095Y0238408D01*
X0200695Y0237207D02*
X0201896Y0237207D01*
X0202497Y0237808D01*
X0203751Y0237207D02*
X0204352Y0237808D01*
X0204352Y0240210D01*
X0204952Y0239609D02*
X0203751Y0239609D01*
X0206207Y0239609D02*
X0207408Y0239609D01*
X0206807Y0240210D02*
X0206807Y0237808D01*
X0206207Y0237207D01*
X0208689Y0237207D02*
X0208689Y0239009D01*
X0209289Y0239609D01*
X0210490Y0239609D01*
X0210490Y0238408D02*
X0208689Y0238408D01*
X0208689Y0237207D02*
X0210490Y0237207D01*
X0211091Y0237808D01*
X0210490Y0238408D01*
X0212946Y0235411D02*
X0212946Y0234810D01*
X0212946Y0233609D02*
X0212946Y0231207D01*
X0213546Y0231207D02*
X0212345Y0231207D01*
X0211091Y0231207D02*
X0211091Y0233609D01*
X0209289Y0233609D01*
X0208689Y0233009D01*
X0208689Y0231207D01*
X0207408Y0231808D02*
X0206807Y0231207D01*
X0205006Y0231207D01*
X0205006Y0230607D02*
X0205006Y0233609D01*
X0206807Y0233609D01*
X0207408Y0233009D01*
X0207408Y0231808D01*
X0206207Y0230006D02*
X0205606Y0230006D01*
X0205006Y0230607D01*
X0199441Y0231808D02*
X0199441Y0234210D01*
X0200041Y0233609D02*
X0198840Y0233609D01*
X0197586Y0233009D02*
X0196986Y0233609D01*
X0195785Y0233609D01*
X0195184Y0233009D01*
X0195184Y0231207D01*
X0193903Y0231808D02*
X0193903Y0233009D01*
X0193302Y0233609D01*
X0192101Y0233609D01*
X0191501Y0233009D01*
X0191501Y0232408D01*
X0193903Y0232408D01*
X0193903Y0231808D02*
X0193302Y0231207D01*
X0192101Y0231207D01*
X0197586Y0231207D02*
X0197586Y0234810D01*
X0199441Y0231808D02*
X0198840Y0231207D01*
X0192075Y0240810D02*
X0192075Y0241411D01*
X0192061Y0243207D02*
X0190860Y0243207D01*
X0191461Y0243207D02*
X0191461Y0245609D01*
X0192061Y0245609D01*
X0193343Y0245609D02*
X0193343Y0243808D01*
X0193943Y0243207D01*
X0194544Y0243808D01*
X0195144Y0243207D01*
X0195745Y0243808D01*
X0195745Y0245609D01*
X0196065Y0249207D02*
X0194263Y0249207D01*
X0196065Y0249207D02*
X0196665Y0249808D01*
X0196665Y0251009D01*
X0196065Y0251609D01*
X0194263Y0251609D01*
X0192982Y0251609D02*
X0191781Y0251609D01*
X0192382Y0252210D02*
X0192382Y0249808D01*
X0191781Y0249207D01*
X0190527Y0249207D02*
X0189326Y0249207D01*
X0189926Y0249207D02*
X0189926Y0251609D01*
X0190527Y0251609D01*
X0189926Y0252810D02*
X0189926Y0253411D01*
X0189005Y0255207D02*
X0187204Y0255207D01*
X0189005Y0255207D02*
X0189606Y0255808D01*
X0189606Y0257009D01*
X0189005Y0257609D01*
X0187204Y0257609D01*
X0185923Y0257609D02*
X0184722Y0257609D01*
X0185322Y0258210D02*
X0185322Y0255808D01*
X0184722Y0255207D01*
X0183467Y0255207D02*
X0182266Y0255207D01*
X0182867Y0255207D02*
X0182867Y0257609D01*
X0183467Y0257609D01*
X0182867Y0258810D02*
X0182867Y0259411D01*
X0181012Y0257009D02*
X0181012Y0255808D01*
X0180411Y0255207D01*
X0179210Y0255207D01*
X0178610Y0255808D01*
X0178610Y0257009D01*
X0179210Y0257609D01*
X0180411Y0257609D01*
X0181012Y0257009D01*
X0177329Y0257609D02*
X0177329Y0255207D01*
X0174927Y0255207D02*
X0174927Y0257009D01*
X0175527Y0257609D01*
X0177329Y0257609D01*
X0169963Y0257009D02*
X0169963Y0255808D01*
X0169362Y0255207D01*
X0168161Y0255207D01*
X0167560Y0255808D01*
X0167560Y0257009D01*
X0168161Y0257609D01*
X0169362Y0257609D01*
X0169963Y0257009D01*
X0166279Y0257009D02*
X0165078Y0257009D01*
X0165679Y0258210D02*
X0165078Y0258810D01*
X0165679Y0258210D02*
X0165679Y0255207D01*
X0163517Y0252810D02*
X0163517Y0249207D01*
X0161716Y0249207D01*
X0161115Y0249808D01*
X0161115Y0251009D01*
X0161716Y0251609D01*
X0163517Y0251609D01*
X0159834Y0249808D02*
X0159233Y0250408D01*
X0157432Y0250408D01*
X0157432Y0251009D02*
X0157432Y0249207D01*
X0159233Y0249207D01*
X0159834Y0249808D01*
X0159233Y0251609D02*
X0158032Y0251609D01*
X0157432Y0251009D01*
X0156151Y0251609D02*
X0154950Y0251609D01*
X0155550Y0252210D02*
X0155550Y0249808D01*
X0154950Y0249207D01*
X0153095Y0249808D02*
X0152494Y0249207D01*
X0153095Y0249808D02*
X0153095Y0252210D01*
X0153695Y0251609D02*
X0152494Y0251609D01*
X0151240Y0251009D02*
X0151240Y0249808D01*
X0150639Y0249207D01*
X0149438Y0249207D01*
X0148838Y0250408D02*
X0151240Y0250408D01*
X0151240Y0251009D02*
X0150639Y0251609D01*
X0149438Y0251609D01*
X0148838Y0251009D01*
X0148838Y0250408D01*
X0147557Y0250408D02*
X0146356Y0251609D01*
X0145755Y0251609D01*
X0144487Y0251609D02*
X0144487Y0249808D01*
X0143887Y0249207D01*
X0142085Y0249207D01*
X0142085Y0248607D02*
X0142686Y0248006D01*
X0143286Y0248006D01*
X0142085Y0248607D02*
X0142085Y0251609D01*
X0140204Y0249808D02*
X0140204Y0249207D01*
X0139603Y0249207D01*
X0139603Y0249808D01*
X0140204Y0249808D01*
X0139603Y0249207D02*
X0140804Y0248006D01*
X0145462Y0246810D02*
X0145462Y0243207D01*
X0147263Y0243207D01*
X0147864Y0243808D01*
X0147864Y0245009D01*
X0147263Y0245609D01*
X0145462Y0245609D01*
X0143580Y0243808D02*
X0143580Y0243207D01*
X0142980Y0243207D01*
X0142980Y0243808D01*
X0143580Y0243808D01*
X0142980Y0243207D02*
X0144181Y0242006D01*
X0147303Y0239009D02*
X0147303Y0237207D01*
X0147303Y0239009D02*
X0147904Y0239609D01*
X0149705Y0239609D01*
X0149705Y0237207D01*
X0150986Y0238408D02*
X0153388Y0238408D01*
X0153388Y0237808D02*
X0153388Y0239009D01*
X0152788Y0239609D01*
X0151587Y0239609D01*
X0150986Y0239009D01*
X0150986Y0238408D01*
X0151587Y0237207D02*
X0152788Y0237207D01*
X0153388Y0237808D01*
X0154669Y0237207D02*
X0154669Y0239009D01*
X0155270Y0239609D01*
X0156471Y0239609D01*
X0157072Y0239009D01*
X0158353Y0239609D02*
X0158353Y0237808D01*
X0158953Y0237207D01*
X0159554Y0237808D01*
X0160154Y0237207D01*
X0160755Y0237808D01*
X0160755Y0239609D01*
X0160194Y0243207D02*
X0160194Y0245009D01*
X0160795Y0245609D01*
X0161395Y0245009D01*
X0161395Y0243207D01*
X0162596Y0243207D02*
X0162596Y0245609D01*
X0161996Y0245609D01*
X0161395Y0245009D01*
X0163877Y0245009D02*
X0163877Y0243207D01*
X0165679Y0243207D01*
X0166279Y0243808D01*
X0165679Y0244408D01*
X0163877Y0244408D01*
X0163877Y0245009D02*
X0164478Y0245609D01*
X0165679Y0245609D01*
X0167561Y0245609D02*
X0169362Y0245609D01*
X0169963Y0245009D01*
X0169963Y0243808D01*
X0169362Y0243207D01*
X0167561Y0243207D01*
X0167561Y0246810D01*
X0169082Y0249207D02*
X0170283Y0249207D01*
X0170883Y0249808D01*
X0170883Y0251009D01*
X0170283Y0251609D01*
X0169082Y0251609D01*
X0168481Y0251009D01*
X0168481Y0250408D01*
X0170883Y0250408D01*
X0172164Y0251009D02*
X0172164Y0249207D01*
X0172164Y0251009D02*
X0172765Y0251609D01*
X0173966Y0251609D01*
X0174566Y0251009D01*
X0175821Y0251609D02*
X0177022Y0251609D01*
X0176421Y0252210D02*
X0176421Y0249808D01*
X0175821Y0249207D01*
X0174566Y0249207D02*
X0174566Y0252810D01*
X0175527Y0245609D02*
X0174927Y0245009D01*
X0174927Y0244408D01*
X0177329Y0244408D01*
X0177329Y0243808D02*
X0177329Y0245009D01*
X0176728Y0245609D01*
X0175527Y0245609D01*
X0175527Y0243207D02*
X0176728Y0243207D01*
X0177329Y0243808D01*
X0178610Y0243808D02*
X0178610Y0245009D01*
X0179210Y0245609D01*
X0181012Y0245609D01*
X0181012Y0246810D02*
X0181012Y0243207D01*
X0179210Y0243207D01*
X0178610Y0243808D01*
X0178570Y0240210D02*
X0178570Y0237808D01*
X0177969Y0237207D01*
X0176715Y0237808D02*
X0176715Y0239009D01*
X0176114Y0239609D01*
X0174913Y0239609D01*
X0174313Y0239009D01*
X0174313Y0237808D01*
X0174913Y0237207D01*
X0176114Y0237207D01*
X0176715Y0237808D01*
X0177969Y0239609D02*
X0179170Y0239609D01*
X0185950Y0243207D02*
X0187151Y0243207D01*
X0186550Y0243207D02*
X0186550Y0246810D01*
X0187151Y0246810D01*
X0189005Y0246810D02*
X0189005Y0243207D01*
X0188405Y0243207D02*
X0189606Y0243207D01*
X0189606Y0246810D02*
X0189005Y0246810D01*
X0191461Y0246810D02*
X0191461Y0247411D01*
X0188071Y0249207D02*
X0188071Y0251609D01*
X0186270Y0251609D01*
X0185669Y0251009D01*
X0185669Y0249207D01*
X0184388Y0249808D02*
X0183788Y0249207D01*
X0181986Y0249207D01*
X0181986Y0248607D02*
X0181986Y0251609D01*
X0183788Y0251609D01*
X0184388Y0251009D01*
X0184388Y0249808D01*
X0183187Y0248006D02*
X0182587Y0248006D01*
X0181986Y0248607D01*
X0191488Y0255207D02*
X0192689Y0255207D01*
X0193289Y0255808D01*
X0193289Y0257009D01*
X0192689Y0257609D01*
X0191488Y0257609D01*
X0190887Y0257009D01*
X0190887Y0256408D01*
X0193289Y0256408D01*
X0194557Y0257609D02*
X0195157Y0257609D01*
X0196358Y0256408D01*
X0196358Y0255207D02*
X0196358Y0257609D01*
X0198213Y0257609D02*
X0198213Y0255207D01*
X0197613Y0255207D02*
X0198814Y0255207D01*
X0200095Y0255207D02*
X0201896Y0255207D01*
X0202497Y0255808D01*
X0202497Y0257009D01*
X0201896Y0257609D01*
X0200095Y0257609D01*
X0200095Y0258810D02*
X0200095Y0255207D01*
X0198814Y0257609D02*
X0198213Y0257609D01*
X0198213Y0258810D02*
X0198213Y0259411D01*
X0198547Y0251609D02*
X0197946Y0251009D01*
X0197946Y0250408D01*
X0200348Y0250408D01*
X0200348Y0249808D02*
X0200348Y0251009D01*
X0199748Y0251609D01*
X0198547Y0251609D01*
X0198547Y0249207D02*
X0199748Y0249207D01*
X0200348Y0249808D01*
X0201630Y0249207D02*
X0201630Y0251009D01*
X0202230Y0251609D01*
X0204032Y0251609D01*
X0204032Y0249207D01*
X0205313Y0249207D02*
X0205313Y0251009D01*
X0205913Y0251609D01*
X0207715Y0251609D01*
X0207715Y0249207D01*
X0208996Y0249808D02*
X0208996Y0251009D01*
X0209596Y0251609D01*
X0210797Y0251609D01*
X0211398Y0251009D01*
X0211398Y0249808D01*
X0210797Y0249207D01*
X0209596Y0249207D01*
X0208996Y0249808D01*
X0212679Y0249207D02*
X0214481Y0249207D01*
X0215081Y0249808D01*
X0215081Y0251009D01*
X0214481Y0251609D01*
X0212679Y0251609D01*
X0213546Y0255207D02*
X0213546Y0258810D01*
X0212946Y0257609D02*
X0211745Y0257609D01*
X0211144Y0257009D01*
X0211144Y0255207D01*
X0209863Y0255808D02*
X0209863Y0257009D01*
X0209263Y0257609D01*
X0208062Y0257609D01*
X0207461Y0257009D01*
X0207461Y0256408D01*
X0209863Y0256408D01*
X0209863Y0255808D02*
X0209263Y0255207D01*
X0208062Y0255207D01*
X0212946Y0257609D02*
X0213546Y0257009D01*
X0214801Y0257609D02*
X0216002Y0257609D01*
X0215401Y0258210D02*
X0215401Y0255808D01*
X0214801Y0255207D01*
X0220966Y0255207D02*
X0220966Y0257009D01*
X0221567Y0257609D01*
X0223368Y0257609D01*
X0223368Y0255207D01*
X0224649Y0255808D02*
X0224649Y0257009D01*
X0225250Y0257609D01*
X0226451Y0257609D01*
X0227051Y0257009D01*
X0227051Y0255808D01*
X0226451Y0255207D01*
X0225250Y0255207D01*
X0224649Y0255808D01*
X0224903Y0252810D02*
X0224302Y0252810D01*
X0224302Y0249207D01*
X0223702Y0249207D02*
X0224903Y0249207D01*
X0226184Y0250408D02*
X0228586Y0250408D01*
X0228586Y0249808D02*
X0228586Y0251009D01*
X0227985Y0251609D01*
X0226784Y0251609D01*
X0226184Y0251009D01*
X0226184Y0250408D01*
X0226784Y0249207D02*
X0227985Y0249207D01*
X0228586Y0249808D01*
X0229867Y0249808D02*
X0230468Y0250408D01*
X0231669Y0250408D01*
X0232269Y0251009D01*
X0231669Y0251609D01*
X0229867Y0251609D01*
X0229867Y0249808D02*
X0230468Y0249207D01*
X0232269Y0249207D01*
X0233817Y0247411D02*
X0233817Y0246810D01*
X0233817Y0245609D02*
X0233817Y0243207D01*
X0233217Y0243207D02*
X0234418Y0243207D01*
X0235699Y0243207D02*
X0237500Y0243207D01*
X0238101Y0243808D01*
X0238101Y0245009D01*
X0237500Y0245609D01*
X0235699Y0245609D01*
X0235699Y0242607D01*
X0236299Y0242006D01*
X0236900Y0242006D01*
X0236272Y0239609D02*
X0234471Y0239609D01*
X0235071Y0238408D02*
X0236272Y0238408D01*
X0236873Y0239009D01*
X0236272Y0239609D01*
X0235071Y0238408D02*
X0234471Y0237808D01*
X0235071Y0237207D01*
X0236873Y0237207D01*
X0238154Y0237207D02*
X0239956Y0237207D01*
X0240556Y0237808D01*
X0239956Y0238408D01*
X0238154Y0238408D01*
X0238154Y0239009D02*
X0238154Y0237207D01*
X0238154Y0239009D02*
X0238755Y0239609D01*
X0239956Y0239609D01*
X0241837Y0239009D02*
X0241837Y0238408D01*
X0244239Y0238408D01*
X0244239Y0237808D02*
X0244239Y0239009D01*
X0243639Y0239609D01*
X0242438Y0239609D01*
X0241837Y0239009D01*
X0242438Y0237207D02*
X0243639Y0237207D01*
X0244239Y0237808D01*
X0245494Y0237207D02*
X0246695Y0237207D01*
X0246094Y0237207D02*
X0246094Y0240810D01*
X0246695Y0240810D01*
X0247976Y0239009D02*
X0247976Y0237808D01*
X0248576Y0237207D01*
X0250378Y0237207D01*
X0250378Y0236006D02*
X0250378Y0239609D01*
X0248576Y0239609D01*
X0247976Y0239009D01*
X0248536Y0243207D02*
X0248536Y0246810D01*
X0247936Y0245609D02*
X0246735Y0245609D01*
X0246134Y0245009D01*
X0246134Y0243207D01*
X0244853Y0243808D02*
X0244253Y0244408D01*
X0242451Y0244408D01*
X0242451Y0245009D02*
X0242451Y0243207D01*
X0244253Y0243207D01*
X0244853Y0243808D01*
X0244253Y0245609D02*
X0243052Y0245609D01*
X0242451Y0245009D01*
X0241170Y0245609D02*
X0241170Y0243207D01*
X0241170Y0244408D02*
X0239969Y0245609D01*
X0239368Y0245609D01*
X0238421Y0249207D02*
X0239021Y0249808D01*
X0239021Y0251009D01*
X0238421Y0251609D01*
X0237220Y0251609D01*
X0236619Y0251009D01*
X0236619Y0250408D01*
X0239021Y0250408D01*
X0238421Y0249207D02*
X0237220Y0249207D01*
X0235338Y0249207D02*
X0235338Y0251609D01*
X0234137Y0251609D02*
X0233537Y0251609D01*
X0234137Y0251609D02*
X0235338Y0250408D01*
X0235699Y0255207D02*
X0235699Y0257609D01*
X0234418Y0257009D02*
X0233817Y0257609D01*
X0232016Y0257609D01*
X0232616Y0256408D02*
X0232016Y0255808D01*
X0232616Y0255207D01*
X0234418Y0255207D01*
X0235699Y0255207D02*
X0237500Y0255207D01*
X0238101Y0255808D01*
X0238101Y0257609D01*
X0239382Y0257609D02*
X0241183Y0257609D01*
X0241784Y0257009D01*
X0241784Y0255808D01*
X0241183Y0255207D01*
X0239382Y0255207D01*
X0240303Y0251609D02*
X0241504Y0249207D01*
X0242705Y0251609D01*
X0243986Y0251009D02*
X0243986Y0250408D01*
X0246388Y0250408D01*
X0246388Y0249808D02*
X0246388Y0251009D01*
X0245787Y0251609D01*
X0244586Y0251609D01*
X0243986Y0251009D01*
X0244586Y0249207D02*
X0245787Y0249207D01*
X0246388Y0249808D01*
X0247656Y0251609D02*
X0248256Y0251609D01*
X0249457Y0250408D01*
X0249457Y0249207D02*
X0249457Y0251609D01*
X0247322Y0255207D02*
X0247322Y0258210D01*
X0246721Y0258810D01*
X0246721Y0257009D02*
X0247922Y0257009D01*
X0245467Y0257009D02*
X0245467Y0255808D01*
X0244866Y0255207D01*
X0243665Y0255207D01*
X0243065Y0255808D01*
X0243065Y0257009D01*
X0243665Y0257609D01*
X0244866Y0257609D01*
X0245467Y0257009D01*
X0252887Y0257009D02*
X0252887Y0256408D01*
X0255289Y0256408D01*
X0255289Y0255808D02*
X0255289Y0257009D01*
X0254688Y0257609D01*
X0253487Y0257609D01*
X0252887Y0257009D01*
X0253487Y0255207D02*
X0254688Y0255207D01*
X0255289Y0255808D01*
X0256570Y0255808D02*
X0257170Y0256408D01*
X0258371Y0256408D01*
X0258972Y0257009D01*
X0258371Y0257609D01*
X0256570Y0257609D01*
X0256570Y0255808D02*
X0257170Y0255207D01*
X0258972Y0255207D01*
X0260253Y0255207D02*
X0262054Y0255207D01*
X0262655Y0255808D01*
X0262054Y0256408D01*
X0260253Y0256408D01*
X0260253Y0257009D02*
X0260253Y0255207D01*
X0260253Y0257009D02*
X0260853Y0257609D01*
X0262054Y0257609D01*
X0263936Y0257009D02*
X0263936Y0256408D01*
X0266338Y0256408D01*
X0266338Y0255808D02*
X0266338Y0257009D01*
X0265738Y0257609D01*
X0264537Y0257609D01*
X0263936Y0257009D01*
X0264537Y0255207D02*
X0265738Y0255207D01*
X0266338Y0255808D01*
X0267593Y0255207D02*
X0268794Y0255207D01*
X0268193Y0255207D02*
X0268193Y0258810D01*
X0268794Y0258810D01*
X0270075Y0258210D02*
X0270075Y0257009D01*
X0270675Y0256408D01*
X0272477Y0256408D01*
X0272477Y0255207D02*
X0272477Y0258810D01*
X0270675Y0258810D01*
X0270075Y0258210D01*
X0272183Y0253411D02*
X0272183Y0252810D01*
X0272183Y0251609D02*
X0272183Y0249207D01*
X0271583Y0249207D02*
X0272784Y0249207D01*
X0272784Y0251609D02*
X0272183Y0251609D01*
X0270328Y0251009D02*
X0269127Y0251009D01*
X0269728Y0252210D02*
X0269127Y0252810D01*
X0269728Y0252210D02*
X0269728Y0249207D01*
X0265724Y0245609D02*
X0264523Y0245609D01*
X0265124Y0246210D02*
X0265124Y0243808D01*
X0264523Y0243207D01*
X0263269Y0243207D02*
X0263269Y0246810D01*
X0262989Y0248006D02*
X0262388Y0248006D01*
X0261788Y0248607D01*
X0261788Y0251609D01*
X0260506Y0251009D02*
X0260506Y0249808D01*
X0259906Y0249207D01*
X0258705Y0249207D01*
X0258104Y0249808D01*
X0258104Y0251009D01*
X0258705Y0251609D01*
X0259906Y0251609D01*
X0260506Y0251009D01*
X0261788Y0249207D02*
X0263589Y0249207D01*
X0264190Y0249808D01*
X0264190Y0251609D01*
X0262668Y0245609D02*
X0261467Y0245609D01*
X0260867Y0245009D01*
X0260867Y0243207D01*
X0259586Y0243808D02*
X0259586Y0245009D01*
X0258985Y0245609D01*
X0257784Y0245609D01*
X0257184Y0245009D01*
X0257184Y0244408D01*
X0259586Y0244408D01*
X0259586Y0243808D02*
X0258985Y0243207D01*
X0257784Y0243207D01*
X0257144Y0239609D02*
X0257744Y0239009D01*
X0257744Y0237808D01*
X0257144Y0237207D01*
X0255943Y0237207D01*
X0255342Y0237808D01*
X0255342Y0239009D01*
X0255943Y0239609D01*
X0257144Y0239609D01*
X0259025Y0239609D02*
X0260827Y0239609D01*
X0261427Y0239009D01*
X0260827Y0238408D01*
X0259626Y0238408D01*
X0259025Y0237808D01*
X0259626Y0237207D01*
X0261427Y0237207D01*
X0252219Y0243808D02*
X0251619Y0243207D01*
X0249817Y0243207D01*
X0248536Y0245009D02*
X0247936Y0245609D01*
X0249817Y0245609D02*
X0251619Y0245609D01*
X0252219Y0245009D01*
X0252219Y0243808D01*
X0254421Y0249207D02*
X0254421Y0251609D01*
X0254421Y0249207D02*
X0256223Y0249207D01*
X0256823Y0249808D01*
X0256823Y0251609D01*
X0262668Y0245609D02*
X0263269Y0245009D01*
X0245467Y0233609D02*
X0245467Y0231808D01*
X0244866Y0231207D01*
X0243065Y0231207D01*
X0243065Y0230607D02*
X0243665Y0230006D01*
X0244266Y0230006D01*
X0243065Y0230607D02*
X0243065Y0233609D01*
X0241784Y0233009D02*
X0241784Y0231808D01*
X0241183Y0231207D01*
X0239982Y0231207D01*
X0239382Y0231808D01*
X0239382Y0233009D01*
X0239982Y0233609D01*
X0241183Y0233609D01*
X0241784Y0233009D01*
X0238101Y0233609D02*
X0238101Y0231808D01*
X0237500Y0231207D01*
X0235699Y0231207D01*
X0235699Y0233609D01*
X0232589Y0237207D02*
X0231388Y0237207D01*
X0232589Y0237207D02*
X0233190Y0237808D01*
X0233190Y0239009D01*
X0232589Y0239609D01*
X0231388Y0239609D01*
X0230788Y0239009D01*
X0230788Y0238408D01*
X0233190Y0238408D01*
X0230734Y0233609D02*
X0230134Y0233609D01*
X0229533Y0233009D01*
X0228933Y0233609D01*
X0228332Y0233009D01*
X0228332Y0231207D01*
X0229533Y0231207D02*
X0229533Y0233009D01*
X0230734Y0233609D02*
X0230734Y0231207D01*
X0227051Y0231808D02*
X0227051Y0233009D01*
X0226451Y0233609D01*
X0225250Y0233609D01*
X0224649Y0233009D01*
X0224649Y0231808D01*
X0225250Y0231207D01*
X0226451Y0231207D01*
X0227051Y0231808D01*
X0223368Y0231808D02*
X0223368Y0233609D01*
X0223368Y0231808D02*
X0222768Y0231207D01*
X0220966Y0231207D01*
X0220966Y0233609D01*
X0219685Y0233609D02*
X0219685Y0231207D01*
X0217283Y0231207D02*
X0217283Y0233009D01*
X0217883Y0233609D01*
X0219685Y0233609D01*
X0217256Y0236006D02*
X0216656Y0236006D01*
X0216055Y0236607D01*
X0216055Y0239609D01*
X0216055Y0237207D02*
X0217857Y0237207D01*
X0218457Y0237808D01*
X0218457Y0239609D01*
X0219738Y0239009D02*
X0219738Y0237207D01*
X0221540Y0237207D01*
X0222140Y0237808D01*
X0221540Y0238408D01*
X0219738Y0238408D01*
X0219738Y0239009D02*
X0220339Y0239609D01*
X0221540Y0239609D01*
X0223421Y0239009D02*
X0223421Y0237808D01*
X0224022Y0237207D01*
X0225824Y0237207D01*
X0225824Y0236006D02*
X0225824Y0239609D01*
X0224022Y0239609D01*
X0223421Y0239009D01*
X0226477Y0242006D02*
X0225877Y0242607D01*
X0225877Y0245609D01*
X0227678Y0245609D01*
X0228279Y0245009D01*
X0228279Y0243808D01*
X0227678Y0243207D01*
X0225877Y0243207D01*
X0226477Y0242006D02*
X0227078Y0242006D01*
X0229560Y0243207D02*
X0229560Y0245009D01*
X0230161Y0245609D01*
X0231962Y0245609D01*
X0231962Y0243207D01*
X0233817Y0245609D02*
X0234418Y0245609D01*
X0222447Y0249808D02*
X0221847Y0249207D01*
X0220045Y0249207D01*
X0220045Y0248607D02*
X0220646Y0248006D01*
X0221246Y0248006D01*
X0220045Y0248607D02*
X0220045Y0251609D01*
X0222447Y0251609D02*
X0222447Y0249808D01*
X0220312Y0245609D02*
X0218511Y0245609D01*
X0217230Y0245609D02*
X0216629Y0245609D01*
X0216629Y0243207D01*
X0216029Y0243207D02*
X0217230Y0243207D01*
X0218511Y0243207D02*
X0220312Y0243207D01*
X0220913Y0243808D01*
X0220913Y0245009D01*
X0220312Y0245609D01*
X0216629Y0246810D02*
X0216629Y0247411D01*
X0214774Y0245609D02*
X0214774Y0243207D01*
X0214774Y0244408D02*
X0213573Y0245609D01*
X0212973Y0245609D01*
X0211705Y0245009D02*
X0211705Y0243808D01*
X0211104Y0243207D01*
X0209303Y0243207D01*
X0208022Y0243808D02*
X0207421Y0243207D01*
X0205620Y0243207D01*
X0205620Y0245609D01*
X0204339Y0245609D02*
X0203738Y0245609D01*
X0203738Y0243207D01*
X0203138Y0243207D02*
X0204339Y0243207D01*
X0201283Y0243808D02*
X0201283Y0246210D01*
X0201883Y0245609D02*
X0200682Y0245609D01*
X0201283Y0243808D02*
X0200682Y0243207D01*
X0203738Y0246810D02*
X0203738Y0247411D01*
X0208022Y0245609D02*
X0208022Y0243808D01*
X0209303Y0245609D02*
X0211104Y0245609D01*
X0211705Y0245009D01*
X0215401Y0234210D02*
X0215401Y0231808D01*
X0214801Y0231207D01*
X0214801Y0233609D02*
X0216002Y0233609D01*
X0213546Y0233609D02*
X0212946Y0233609D01*
X0232616Y0256408D02*
X0233817Y0256408D01*
X0234418Y0257009D01*
X0169349Y0239609D02*
X0168748Y0239609D01*
X0168748Y0237207D01*
X0168148Y0237207D02*
X0169349Y0237207D01*
X0166293Y0237808D02*
X0166293Y0240210D01*
X0166893Y0239609D02*
X0165692Y0239609D01*
X0166293Y0237808D02*
X0165692Y0237207D01*
X0165105Y0233609D02*
X0165105Y0230607D01*
X0165706Y0230006D01*
X0166306Y0230006D01*
X0157072Y0237207D02*
X0157072Y0240810D01*
X0156511Y0243207D02*
X0158313Y0243207D01*
X0158913Y0243808D01*
X0158313Y0244408D01*
X0156511Y0244408D01*
X0156511Y0245009D02*
X0156511Y0243207D01*
X0155230Y0243808D02*
X0155230Y0245009D01*
X0154629Y0245609D01*
X0152828Y0245609D01*
X0152828Y0242607D01*
X0153428Y0242006D01*
X0154029Y0242006D01*
X0154629Y0243207D02*
X0152828Y0243207D01*
X0151547Y0243808D02*
X0151547Y0245009D01*
X0150946Y0245609D01*
X0149745Y0245609D01*
X0149145Y0245009D01*
X0149145Y0244408D01*
X0151547Y0244408D01*
X0151547Y0243808D02*
X0150946Y0243207D01*
X0149745Y0243207D01*
X0154629Y0243207D02*
X0155230Y0243808D01*
X0156511Y0245009D02*
X0157112Y0245609D01*
X0158313Y0245609D01*
X0168748Y0241411D02*
X0168748Y0240810D01*
X0160141Y0255207D02*
X0158339Y0255207D01*
X0157739Y0255808D01*
X0157739Y0257009D01*
X0158339Y0257609D01*
X0160141Y0257609D01*
X0160141Y0258810D02*
X0160141Y0255207D01*
X0156458Y0255808D02*
X0155857Y0256408D01*
X0154056Y0256408D01*
X0154056Y0257009D02*
X0154056Y0255207D01*
X0155857Y0255207D01*
X0156458Y0255808D01*
X0155857Y0257609D02*
X0154656Y0257609D01*
X0154056Y0257009D01*
X0152775Y0257609D02*
X0151574Y0257609D01*
X0152174Y0258210D02*
X0152174Y0255808D01*
X0151574Y0255207D01*
X0149719Y0255808D02*
X0149118Y0255207D01*
X0149719Y0255808D02*
X0149719Y0258210D01*
X0150319Y0257609D02*
X0149118Y0257609D01*
X0147864Y0257009D02*
X0147864Y0255808D01*
X0147263Y0255207D01*
X0146062Y0255207D01*
X0145462Y0256408D02*
X0147864Y0256408D01*
X0147864Y0257009D02*
X0147263Y0257609D01*
X0146062Y0257609D01*
X0145462Y0257009D01*
X0145462Y0256408D01*
X0144181Y0256408D02*
X0142980Y0257609D01*
X0142379Y0257609D01*
X0141111Y0257609D02*
X0141111Y0255808D01*
X0140511Y0255207D01*
X0138709Y0255207D01*
X0138709Y0254607D02*
X0139310Y0254006D01*
X0139910Y0254006D01*
X0138709Y0254607D02*
X0138709Y0257609D01*
X0136828Y0255808D02*
X0136828Y0255207D01*
X0136227Y0255207D01*
X0136227Y0255808D01*
X0136828Y0255808D01*
X0136227Y0255207D02*
X0137428Y0254006D01*
X0144181Y0255207D02*
X0144181Y0257609D01*
X0147557Y0251609D02*
X0147557Y0249207D01*
D11*
X0130800Y0262507D02*
X0280800Y0262507D01*
X0280800Y0226882D01*
X0130800Y0226882D01*
X0130800Y0262507D01*
D12*
X0022650Y0018900D02*
X0401400Y0018900D01*
X0401399Y0018899D02*
X0401581Y0018900D01*
X0401763Y0018905D01*
X0401944Y0018915D01*
X0402125Y0018929D01*
X0402306Y0018947D01*
X0402486Y0018970D01*
X0402666Y0018997D01*
X0402845Y0019029D01*
X0403023Y0019065D01*
X0403200Y0019105D01*
X0403376Y0019150D01*
X0403551Y0019198D01*
X0403725Y0019252D01*
X0403897Y0019309D01*
X0404068Y0019370D01*
X0404237Y0019436D01*
X0404405Y0019506D01*
X0404571Y0019580D01*
X0404735Y0019658D01*
X0404897Y0019740D01*
X0405057Y0019826D01*
X0405215Y0019915D01*
X0405371Y0020009D01*
X0405524Y0020106D01*
X0405675Y0020207D01*
X0405824Y0020312D01*
X0405970Y0020421D01*
X0406113Y0020532D01*
X0406253Y0020648D01*
X0406391Y0020766D01*
X0406525Y0020888D01*
X0406657Y0021014D01*
X0406785Y0021142D01*
X0406911Y0021274D01*
X0407033Y0021408D01*
X0407151Y0021546D01*
X0407267Y0021686D01*
X0407378Y0021829D01*
X0407487Y0021975D01*
X0407592Y0022124D01*
X0407693Y0022275D01*
X0407790Y0022428D01*
X0407884Y0022584D01*
X0407973Y0022742D01*
X0408059Y0022902D01*
X0408141Y0023064D01*
X0408219Y0023228D01*
X0408293Y0023394D01*
X0408363Y0023562D01*
X0408429Y0023731D01*
X0408490Y0023902D01*
X0408547Y0024074D01*
X0408601Y0024248D01*
X0408649Y0024423D01*
X0408694Y0024599D01*
X0408734Y0024776D01*
X0408770Y0024954D01*
X0408802Y0025133D01*
X0408829Y0025313D01*
X0408852Y0025493D01*
X0408870Y0025674D01*
X0408884Y0025855D01*
X0408894Y0026036D01*
X0408899Y0026218D01*
X0408900Y0026400D01*
X0408900Y0283900D01*
X0408901Y0283900D02*
X0408900Y0284083D01*
X0408894Y0284266D01*
X0408884Y0284449D01*
X0408869Y0284631D01*
X0408850Y0284813D01*
X0408827Y0284994D01*
X0408799Y0285175D01*
X0408766Y0285355D01*
X0408729Y0285535D01*
X0408688Y0285713D01*
X0408643Y0285890D01*
X0408593Y0286066D01*
X0408539Y0286241D01*
X0408481Y0286414D01*
X0408418Y0286586D01*
X0408351Y0286756D01*
X0408281Y0286925D01*
X0408206Y0287092D01*
X0408127Y0287257D01*
X0408044Y0287420D01*
X0407957Y0287581D01*
X0407866Y0287740D01*
X0407771Y0287896D01*
X0407672Y0288050D01*
X0407570Y0288202D01*
X0407464Y0288351D01*
X0407355Y0288498D01*
X0407242Y0288642D01*
X0407125Y0288783D01*
X0407005Y0288921D01*
X0406882Y0289056D01*
X0406755Y0289188D01*
X0406625Y0289317D01*
X0406492Y0289442D01*
X0406356Y0289565D01*
X0406217Y0289684D01*
X0406076Y0289800D01*
X0405931Y0289912D01*
X0405784Y0290020D01*
X0405634Y0290125D01*
X0405482Y0290227D01*
X0405327Y0290324D01*
X0405170Y0290418D01*
X0405010Y0290508D01*
X0404849Y0290594D01*
X0404685Y0290676D01*
X0404520Y0290753D01*
X0404352Y0290827D01*
X0404183Y0290897D01*
X0404013Y0290963D01*
X0403840Y0291024D01*
X0403666Y0291081D01*
X0403491Y0291134D01*
X0403315Y0291183D01*
X0403137Y0291227D01*
X0402959Y0291267D01*
X0402779Y0291302D01*
X0402599Y0291334D01*
X0402418Y0291360D01*
X0402237Y0291383D01*
X0402054Y0291401D01*
X0401872Y0291414D01*
X0401689Y0291423D01*
X0401506Y0291427D01*
X0401323Y0291427D01*
X0401141Y0291423D01*
X0400958Y0291414D01*
X0400775Y0291401D01*
X0400775Y0291400D02*
X0022650Y0291400D01*
X0022650Y0291401D02*
X0022468Y0291400D01*
X0022286Y0291395D01*
X0022105Y0291385D01*
X0021924Y0291371D01*
X0021743Y0291353D01*
X0021563Y0291330D01*
X0021383Y0291303D01*
X0021204Y0291271D01*
X0021026Y0291235D01*
X0020849Y0291195D01*
X0020673Y0291150D01*
X0020498Y0291102D01*
X0020324Y0291048D01*
X0020152Y0290991D01*
X0019981Y0290930D01*
X0019812Y0290864D01*
X0019644Y0290794D01*
X0019478Y0290720D01*
X0019314Y0290642D01*
X0019152Y0290560D01*
X0018992Y0290474D01*
X0018834Y0290385D01*
X0018678Y0290291D01*
X0018525Y0290194D01*
X0018374Y0290093D01*
X0018225Y0289988D01*
X0018079Y0289879D01*
X0017936Y0289768D01*
X0017796Y0289652D01*
X0017658Y0289534D01*
X0017524Y0289412D01*
X0017392Y0289286D01*
X0017264Y0289158D01*
X0017138Y0289026D01*
X0017016Y0288892D01*
X0016898Y0288754D01*
X0016782Y0288614D01*
X0016671Y0288471D01*
X0016562Y0288325D01*
X0016457Y0288176D01*
X0016356Y0288025D01*
X0016259Y0287872D01*
X0016165Y0287716D01*
X0016076Y0287558D01*
X0015990Y0287398D01*
X0015908Y0287236D01*
X0015830Y0287072D01*
X0015756Y0286906D01*
X0015686Y0286738D01*
X0015620Y0286569D01*
X0015559Y0286398D01*
X0015502Y0286226D01*
X0015448Y0286052D01*
X0015400Y0285877D01*
X0015355Y0285701D01*
X0015315Y0285524D01*
X0015279Y0285346D01*
X0015247Y0285167D01*
X0015220Y0284987D01*
X0015197Y0284807D01*
X0015179Y0284626D01*
X0015165Y0284445D01*
X0015155Y0284264D01*
X0015150Y0284082D01*
X0015149Y0283900D01*
X0015150Y0283900D02*
X0015150Y0026400D01*
X0015150Y0026399D02*
X0015144Y0026224D01*
X0015143Y0026049D01*
X0015146Y0025873D01*
X0015154Y0025698D01*
X0015165Y0025523D01*
X0015181Y0025349D01*
X0015201Y0025174D01*
X0015225Y0025001D01*
X0015254Y0024828D01*
X0015287Y0024655D01*
X0015324Y0024484D01*
X0015365Y0024314D01*
X0015410Y0024144D01*
X0015460Y0023976D01*
X0015513Y0023809D01*
X0015571Y0023643D01*
X0015632Y0023479D01*
X0015698Y0023316D01*
X0015767Y0023155D01*
X0015841Y0022996D01*
X0015918Y0022839D01*
X0015999Y0022683D01*
X0016084Y0022530D01*
X0016173Y0022378D01*
X0016265Y0022229D01*
X0016361Y0022082D01*
X0016460Y0021938D01*
X0016563Y0021796D01*
X0016669Y0021656D01*
X0016779Y0021519D01*
X0016892Y0021385D01*
X0017008Y0021254D01*
X0017128Y0021126D01*
X0017250Y0021000D01*
X0017376Y0020878D01*
X0017504Y0020758D01*
X0017635Y0020642D01*
X0017769Y0020529D01*
X0017906Y0020419D01*
X0018046Y0020313D01*
X0018188Y0020210D01*
X0018332Y0020111D01*
X0018479Y0020015D01*
X0018628Y0019923D01*
X0018780Y0019834D01*
X0018933Y0019749D01*
X0019089Y0019668D01*
X0019246Y0019591D01*
X0019405Y0019517D01*
X0019566Y0019448D01*
X0019729Y0019382D01*
X0019893Y0019321D01*
X0020059Y0019263D01*
X0020226Y0019210D01*
X0020394Y0019160D01*
X0020564Y0019115D01*
X0020734Y0019074D01*
X0020905Y0019037D01*
X0021078Y0019004D01*
X0021251Y0018975D01*
X0021424Y0018951D01*
X0021599Y0018931D01*
X0021773Y0018915D01*
X0021948Y0018904D01*
X0022123Y0018896D01*
X0022299Y0018893D01*
X0022474Y0018894D01*
X0022649Y0018900D01*
X0101863Y0245632D02*
X0101865Y0245757D01*
X0101871Y0245882D01*
X0101881Y0246006D01*
X0101895Y0246130D01*
X0101912Y0246254D01*
X0101934Y0246377D01*
X0101960Y0246499D01*
X0101989Y0246621D01*
X0102022Y0246741D01*
X0102060Y0246860D01*
X0102100Y0246979D01*
X0102145Y0247095D01*
X0102193Y0247210D01*
X0102245Y0247324D01*
X0102301Y0247436D01*
X0102360Y0247546D01*
X0102422Y0247654D01*
X0102488Y0247761D01*
X0102557Y0247865D01*
X0102630Y0247966D01*
X0102705Y0248066D01*
X0102784Y0248163D01*
X0102866Y0248257D01*
X0102951Y0248349D01*
X0103038Y0248438D01*
X0103129Y0248524D01*
X0103222Y0248607D01*
X0103318Y0248688D01*
X0103416Y0248765D01*
X0103516Y0248839D01*
X0103619Y0248910D01*
X0103724Y0248977D01*
X0103832Y0249042D01*
X0103941Y0249102D01*
X0104052Y0249160D01*
X0104165Y0249213D01*
X0104279Y0249263D01*
X0104395Y0249310D01*
X0104512Y0249352D01*
X0104631Y0249391D01*
X0104751Y0249427D01*
X0104872Y0249458D01*
X0104994Y0249486D01*
X0105116Y0249509D01*
X0105240Y0249529D01*
X0105364Y0249545D01*
X0105488Y0249557D01*
X0105613Y0249565D01*
X0105738Y0249569D01*
X0105862Y0249569D01*
X0105987Y0249565D01*
X0106112Y0249557D01*
X0106236Y0249545D01*
X0106360Y0249529D01*
X0106484Y0249509D01*
X0106606Y0249486D01*
X0106728Y0249458D01*
X0106849Y0249427D01*
X0106969Y0249391D01*
X0107088Y0249352D01*
X0107205Y0249310D01*
X0107321Y0249263D01*
X0107435Y0249213D01*
X0107548Y0249160D01*
X0107659Y0249102D01*
X0107769Y0249042D01*
X0107876Y0248977D01*
X0107981Y0248910D01*
X0108084Y0248839D01*
X0108184Y0248765D01*
X0108282Y0248688D01*
X0108378Y0248607D01*
X0108471Y0248524D01*
X0108562Y0248438D01*
X0108649Y0248349D01*
X0108734Y0248257D01*
X0108816Y0248163D01*
X0108895Y0248066D01*
X0108970Y0247966D01*
X0109043Y0247865D01*
X0109112Y0247761D01*
X0109178Y0247654D01*
X0109240Y0247546D01*
X0109299Y0247436D01*
X0109355Y0247324D01*
X0109407Y0247210D01*
X0109455Y0247095D01*
X0109500Y0246979D01*
X0109540Y0246860D01*
X0109578Y0246741D01*
X0109611Y0246621D01*
X0109640Y0246499D01*
X0109666Y0246377D01*
X0109688Y0246254D01*
X0109705Y0246130D01*
X0109719Y0246006D01*
X0109729Y0245882D01*
X0109735Y0245757D01*
X0109737Y0245632D01*
X0109735Y0245507D01*
X0109729Y0245382D01*
X0109719Y0245258D01*
X0109705Y0245134D01*
X0109688Y0245010D01*
X0109666Y0244887D01*
X0109640Y0244765D01*
X0109611Y0244643D01*
X0109578Y0244523D01*
X0109540Y0244404D01*
X0109500Y0244285D01*
X0109455Y0244169D01*
X0109407Y0244054D01*
X0109355Y0243940D01*
X0109299Y0243828D01*
X0109240Y0243718D01*
X0109178Y0243610D01*
X0109112Y0243503D01*
X0109043Y0243399D01*
X0108970Y0243298D01*
X0108895Y0243198D01*
X0108816Y0243101D01*
X0108734Y0243007D01*
X0108649Y0242915D01*
X0108562Y0242826D01*
X0108471Y0242740D01*
X0108378Y0242657D01*
X0108282Y0242576D01*
X0108184Y0242499D01*
X0108084Y0242425D01*
X0107981Y0242354D01*
X0107876Y0242287D01*
X0107768Y0242222D01*
X0107659Y0242162D01*
X0107548Y0242104D01*
X0107435Y0242051D01*
X0107321Y0242001D01*
X0107205Y0241954D01*
X0107088Y0241912D01*
X0106969Y0241873D01*
X0106849Y0241837D01*
X0106728Y0241806D01*
X0106606Y0241778D01*
X0106484Y0241755D01*
X0106360Y0241735D01*
X0106236Y0241719D01*
X0106112Y0241707D01*
X0105987Y0241699D01*
X0105862Y0241695D01*
X0105738Y0241695D01*
X0105613Y0241699D01*
X0105488Y0241707D01*
X0105364Y0241719D01*
X0105240Y0241735D01*
X0105116Y0241755D01*
X0104994Y0241778D01*
X0104872Y0241806D01*
X0104751Y0241837D01*
X0104631Y0241873D01*
X0104512Y0241912D01*
X0104395Y0241954D01*
X0104279Y0242001D01*
X0104165Y0242051D01*
X0104052Y0242104D01*
X0103941Y0242162D01*
X0103831Y0242222D01*
X0103724Y0242287D01*
X0103619Y0242354D01*
X0103516Y0242425D01*
X0103416Y0242499D01*
X0103318Y0242576D01*
X0103222Y0242657D01*
X0103129Y0242740D01*
X0103038Y0242826D01*
X0102951Y0242915D01*
X0102866Y0243007D01*
X0102784Y0243101D01*
X0102705Y0243198D01*
X0102630Y0243298D01*
X0102557Y0243399D01*
X0102488Y0243503D01*
X0102422Y0243610D01*
X0102360Y0243718D01*
X0102301Y0243828D01*
X0102245Y0243940D01*
X0102193Y0244054D01*
X0102145Y0244169D01*
X0102100Y0244285D01*
X0102060Y0244404D01*
X0102022Y0244523D01*
X0101989Y0244643D01*
X0101960Y0244765D01*
X0101934Y0244887D01*
X0101912Y0245010D01*
X0101895Y0245134D01*
X0101881Y0245258D01*
X0101871Y0245382D01*
X0101865Y0245507D01*
X0101863Y0245632D01*
X0311863Y0245632D02*
X0311865Y0245757D01*
X0311871Y0245882D01*
X0311881Y0246006D01*
X0311895Y0246130D01*
X0311912Y0246254D01*
X0311934Y0246377D01*
X0311960Y0246499D01*
X0311989Y0246621D01*
X0312022Y0246741D01*
X0312060Y0246860D01*
X0312100Y0246979D01*
X0312145Y0247095D01*
X0312193Y0247210D01*
X0312245Y0247324D01*
X0312301Y0247436D01*
X0312360Y0247546D01*
X0312422Y0247654D01*
X0312488Y0247761D01*
X0312557Y0247865D01*
X0312630Y0247966D01*
X0312705Y0248066D01*
X0312784Y0248163D01*
X0312866Y0248257D01*
X0312951Y0248349D01*
X0313038Y0248438D01*
X0313129Y0248524D01*
X0313222Y0248607D01*
X0313318Y0248688D01*
X0313416Y0248765D01*
X0313516Y0248839D01*
X0313619Y0248910D01*
X0313724Y0248977D01*
X0313832Y0249042D01*
X0313941Y0249102D01*
X0314052Y0249160D01*
X0314165Y0249213D01*
X0314279Y0249263D01*
X0314395Y0249310D01*
X0314512Y0249352D01*
X0314631Y0249391D01*
X0314751Y0249427D01*
X0314872Y0249458D01*
X0314994Y0249486D01*
X0315116Y0249509D01*
X0315240Y0249529D01*
X0315364Y0249545D01*
X0315488Y0249557D01*
X0315613Y0249565D01*
X0315738Y0249569D01*
X0315862Y0249569D01*
X0315987Y0249565D01*
X0316112Y0249557D01*
X0316236Y0249545D01*
X0316360Y0249529D01*
X0316484Y0249509D01*
X0316606Y0249486D01*
X0316728Y0249458D01*
X0316849Y0249427D01*
X0316969Y0249391D01*
X0317088Y0249352D01*
X0317205Y0249310D01*
X0317321Y0249263D01*
X0317435Y0249213D01*
X0317548Y0249160D01*
X0317659Y0249102D01*
X0317769Y0249042D01*
X0317876Y0248977D01*
X0317981Y0248910D01*
X0318084Y0248839D01*
X0318184Y0248765D01*
X0318282Y0248688D01*
X0318378Y0248607D01*
X0318471Y0248524D01*
X0318562Y0248438D01*
X0318649Y0248349D01*
X0318734Y0248257D01*
X0318816Y0248163D01*
X0318895Y0248066D01*
X0318970Y0247966D01*
X0319043Y0247865D01*
X0319112Y0247761D01*
X0319178Y0247654D01*
X0319240Y0247546D01*
X0319299Y0247436D01*
X0319355Y0247324D01*
X0319407Y0247210D01*
X0319455Y0247095D01*
X0319500Y0246979D01*
X0319540Y0246860D01*
X0319578Y0246741D01*
X0319611Y0246621D01*
X0319640Y0246499D01*
X0319666Y0246377D01*
X0319688Y0246254D01*
X0319705Y0246130D01*
X0319719Y0246006D01*
X0319729Y0245882D01*
X0319735Y0245757D01*
X0319737Y0245632D01*
X0319735Y0245507D01*
X0319729Y0245382D01*
X0319719Y0245258D01*
X0319705Y0245134D01*
X0319688Y0245010D01*
X0319666Y0244887D01*
X0319640Y0244765D01*
X0319611Y0244643D01*
X0319578Y0244523D01*
X0319540Y0244404D01*
X0319500Y0244285D01*
X0319455Y0244169D01*
X0319407Y0244054D01*
X0319355Y0243940D01*
X0319299Y0243828D01*
X0319240Y0243718D01*
X0319178Y0243610D01*
X0319112Y0243503D01*
X0319043Y0243399D01*
X0318970Y0243298D01*
X0318895Y0243198D01*
X0318816Y0243101D01*
X0318734Y0243007D01*
X0318649Y0242915D01*
X0318562Y0242826D01*
X0318471Y0242740D01*
X0318378Y0242657D01*
X0318282Y0242576D01*
X0318184Y0242499D01*
X0318084Y0242425D01*
X0317981Y0242354D01*
X0317876Y0242287D01*
X0317768Y0242222D01*
X0317659Y0242162D01*
X0317548Y0242104D01*
X0317435Y0242051D01*
X0317321Y0242001D01*
X0317205Y0241954D01*
X0317088Y0241912D01*
X0316969Y0241873D01*
X0316849Y0241837D01*
X0316728Y0241806D01*
X0316606Y0241778D01*
X0316484Y0241755D01*
X0316360Y0241735D01*
X0316236Y0241719D01*
X0316112Y0241707D01*
X0315987Y0241699D01*
X0315862Y0241695D01*
X0315738Y0241695D01*
X0315613Y0241699D01*
X0315488Y0241707D01*
X0315364Y0241719D01*
X0315240Y0241735D01*
X0315116Y0241755D01*
X0314994Y0241778D01*
X0314872Y0241806D01*
X0314751Y0241837D01*
X0314631Y0241873D01*
X0314512Y0241912D01*
X0314395Y0241954D01*
X0314279Y0242001D01*
X0314165Y0242051D01*
X0314052Y0242104D01*
X0313941Y0242162D01*
X0313831Y0242222D01*
X0313724Y0242287D01*
X0313619Y0242354D01*
X0313516Y0242425D01*
X0313416Y0242499D01*
X0313318Y0242576D01*
X0313222Y0242657D01*
X0313129Y0242740D01*
X0313038Y0242826D01*
X0312951Y0242915D01*
X0312866Y0243007D01*
X0312784Y0243101D01*
X0312705Y0243198D01*
X0312630Y0243298D01*
X0312557Y0243399D01*
X0312488Y0243503D01*
X0312422Y0243610D01*
X0312360Y0243718D01*
X0312301Y0243828D01*
X0312245Y0243940D01*
X0312193Y0244054D01*
X0312145Y0244169D01*
X0312100Y0244285D01*
X0312060Y0244404D01*
X0312022Y0244523D01*
X0311989Y0244643D01*
X0311960Y0244765D01*
X0311934Y0244887D01*
X0311912Y0245010D01*
X0311895Y0245134D01*
X0311881Y0245258D01*
X0311871Y0245382D01*
X0311865Y0245507D01*
X0311863Y0245632D01*
D13*
X0342689Y0223585D02*
X0342689Y0267680D01*
X0078910Y0267680D01*
X0078910Y0223585D01*
X0342689Y0223585D01*
X0366311Y0203900D02*
X0366311Y0287365D01*
X0055288Y0287365D01*
X0055288Y0203900D01*
X0366311Y0203900D01*
D14*
X0301847Y0247594D02*
X0286234Y0247594D01*
X0294040Y0239788D02*
X0294040Y0255401D01*
X0133500Y0247594D02*
X0117887Y0247594D01*
M02*
